<svg xmlns="http://www.w3.org/2000/svg" viewBox="0 0 66 39"><g id="Layer_2" data-name="Layer 2"><g id="レイヤー_1" data-name="レイヤー 1"><g id="レイヤー_2" data-name="レイヤー 2"><g id="デザイン"><path d="M.84,36.57C.84,37.36,1.19,38,2,38s1.13-.6,1.13-1.44S2.77,35.19,2,35.19.84,35.78.84,36.57Zm-.84,0a1.91,1.91,0,0,1,2-2.12,1.93,1.93,0,0,1,2,2.12A1.91,1.91,0,0,1,2,38.7,1.91,1.91,0,0,1,0,36.57Z"/><path d="M6.33,38.7c-1.24,0-1.88-.84-1.88-2.13a1.86,1.86,0,0,1,2-2.12,1.88,1.88,0,0,1,1.23.39,1.5,1.5,0,0,1,.49,1.09H7.66a.42.42,0,0,1-.39-.25.82.82,0,0,0-.8-.44c-.79,0-1.13.54-1.13,1.38S5.68,38,6.43,38a.87.87,0,0,0,.93-.74H8.2A1.71,1.71,0,0,1,6.33,38.7Z"/><path d="M8.7,35A.38.38,0,0,1,9,34.55h2.67v.74H9.54v.89h1.63v.29a.4.4,0,0,1-.45.45H9.54V38h2.17v.74h-3V35Z"/><path d="M13.59,37.12h1.14l-.59-1.73Zm1-2.57,1.48,4.1h-.89l-.29-.84H13.34l-.24.84h-.89l1.38-3.86a.38.38,0,0,1,.4-.29Z"/><path d="M17.1,34.55h.45l1.68,2.81V34.55h.84v4.1h-.89L17.5,35.83v2.82h-.84V35A.44.44,0,0,1,17.1,34.55Z"/><path d="M22.88,37.46A1,1,0,0,0,23,38a.65.65,0,0,0,.3.34,1,1,0,0,0,.39.2,1.38,1.38,0,0,0,.45,0,1.63,1.63,0,0,0,.49,0,.81.81,0,0,0,.35-.2,1,1,0,0,0,.2-.29,1,1,0,0,0-.05-.74,1.33,1.33,0,0,0-.3-.25,1.64,1.64,0,0,0-.44-.15,1.78,1.78,0,0,0-.5-.1,1.84,1.84,0,0,1-.49-.15,2.16,2.16,0,0,1-.45-.19.65.65,0,0,1-.29-.35,1,1,0,0,1-.1-.54,1.46,1.46,0,0,1,.1-.45A.7.7,0,0,1,23,34.7a2,2,0,0,1,.45-.25,2.76,2.76,0,0,1,.64-.1,2.84,2.84,0,0,1,.64.1.9.9,0,0,1,.45.3,2.19,2.19,0,0,1,.29.39,1.78,1.78,0,0,1,.1.49h-.39a1.47,1.47,0,0,0-.1-.44,1.33,1.33,0,0,0-.25-.3.45.45,0,0,0-.35-.14,1,1,0,0,0-.39,0,2.44,2.44,0,0,0-.54.09.9.9,0,0,0-.35.25,1,1,0,0,0-.2.3.4.4,0,0,0,0,.34.75.75,0,0,0,.15.35.81.81,0,0,0,.35.2l.44.15a4.58,4.58,0,0,0,.5.09,5,5,0,0,0,.49.15,1,1,0,0,1,.4.2,2.83,2.83,0,0,1,.29.35,1,1,0,0,1,.1.54,1.38,1.38,0,0,1-.39.94,2,2,0,0,1-1.19.35,2.76,2.76,0,0,1-.64-.1,1.56,1.56,0,0,1-.5-.25,1.07,1.07,0,0,1-.34-.45,1.31,1.31,0,0,1-.1-.64Z"/><polygon points="26.54 38.75 26.54 34.4 26.94 34.4 26.94 36.28 29.56 36.28 29.56 34.4 29.95 34.4 29.95 38.75 29.56 38.75 29.56 36.62 26.94 36.62 26.94 38.75 26.54 38.75"/><rect x="31.19" y="34.4" width="0.4" height="4.35"/><path d="M34.7,36.87v-.35h1.87V38.8h-.34v-.74a2.5,2.5,0,0,1-.25.34,2.17,2.17,0,0,1-.35.3.75.75,0,0,1-.44.15,2.39,2.39,0,0,1-.59,0,1.75,1.75,0,0,1-.74-.15,1.37,1.37,0,0,1-.6-.45,1.69,1.69,0,0,1-.39-.74,3.68,3.68,0,0,1-.15-1,5.51,5.51,0,0,1,.1-.89,2,2,0,0,1,.39-.74,1.7,1.7,0,0,1,.65-.49,2.8,2.8,0,0,1,.89-.2,2.93,2.93,0,0,1,.64.1,1.79,1.79,0,0,1,.54.25,1.15,1.15,0,0,1,.4.44,3,3,0,0,1,.24.6h-.44a1.78,1.78,0,0,0-.2-.45,2.17,2.17,0,0,0-.3-.35,1.56,1.56,0,0,0-.39-.19,1.38,1.38,0,0,0-.45-.05,2,2,0,0,0-.74.15,1,1,0,0,0-.49.44,1.94,1.94,0,0,0-.3.64,2.19,2.19,0,0,0-.15.94,3.19,3.19,0,0,0,.1.69,1.69,1.69,0,0,0,.3.6,1.52,1.52,0,0,0,1.19.54.83.83,0,0,0,.34,0,1.86,1.86,0,0,0,.69-.34,1.52,1.52,0,0,0,.25-.35l.15-.45a1.45,1.45,0,0,0,0-.49Z"/><path d="M38.4,37.07h1.73l-.84-2.28Zm-1.08,1.68L39,34.4h.45l1.68,4.35h-.44l-.5-1.39h-2l-.49,1.39Z"/><path d="M45.22,36.82h-1v1.09h1c.4,0,.69-.1.69-.55S45.62,36.82,45.22,36.82Zm0-1.58h-.94v.89h.94c.35,0,.6-.1.6-.45s-.2-.44-.6-.44Zm.1,3.41H43.39V34.94a.45.45,0,0,1,.45-.44h1.53c.79,0,1.29.29,1.29,1a.8.8,0,0,1-.5.84,1,1,0,0,1,.64,1c0,.89-.64,1.29-1.53,1.29Z"/><path d="M47.69,34.55h.4v3.36h2v.74H47.25V35A.53.53,0,0,1,47.69,34.55Z"/><path d="M52,37.12h1.14l-.59-1.73Zm1.09-2.57,1.48,4.1h-.89l-.29-.84H51.8l-.3.84h-.89L52,34.79a.38.38,0,0,1,.4-.29Z"/><path d="M56.59,38.7c-1.28,0-1.88-.84-1.88-2.13s.64-2.12,2-2.12a1.87,1.87,0,0,1,1.23.39,1.51,1.51,0,0,1,.5,1.09h-.5a.44.44,0,0,1-.39-.25.81.81,0,0,0-.79-.44c-.79,0-1.14.54-1.14,1.38S56,38,56.69,38a.91.91,0,0,0,.94-.74h.84A1.75,1.75,0,0,1,56.59,38.7Z"/><path d="M59.31,34.55h.39v1.68l1.64-1.68h1.08l-1.63,1.68,1.78,2.47h-1l-1-1.43c-.19-.25-.34-.35-.49-.3a.32.32,0,0,0-.25.3V38.7h-.84V35C58.91,34.75,59.06,34.55,59.31,34.55Z"/><path d="M65.24,37.51c0-.19-.1-.34-.4-.39a8.29,8.29,0,0,1-.84-.25c-.79-.2-1.18-.59-1.18-1.14,0-.89.54-1.28,1.53-1.28s1.48.44,1.53,1.28h-.49a.52.52,0,0,1-.4-.24.73.73,0,0,0-.74-.35c-.44,0-.64.15-.69.49s.25.45.79.6a9.25,9.25,0,0,1,1,.29.9.9,0,0,1,.64,1c0,.79-.59,1.19-1.63,1.19s-1.63-.45-1.68-1.34h.84c.05.45.3.65.84.65S65.24,37.86,65.24,37.51Z"/><path d="M51.6,7c-9.84,5-13.2-4.89-23.08.1L30.3,3c9.83-5,13,5.48,22.88.49C52.64,4.84,52.19,5.63,51.6,7Z"/><path d="M48.19,14.83c-9.84,5-13.3-4.6-23.13.34l1.78-4.1c9.83-5,13.05,5.49,22.88.5C49.08,13,48.78,13.49,48.19,14.83Z"/><path d="M44.83,22.44c-9.84,5-13.45-4.05-23.33.94l1.78-4.1c9.83-5,13,5.48,22.88.49C45.57,21.15,45.37,21.05,44.83,22.44Z"/><polygon points="26.64 0 13.05 31.48 16.41 30.4 28.91 2.22 26.64 0"/></g></g></g></g></svg>