<svg xmlns="http://www.w3.org/2000/svg" viewBox="0 0 169.25 100"><defs><style>.cls-1{fill:#fff;}</style></defs><g id="レイヤー_2" data-name="レイヤー 2"><g id="レイヤー_1-2" data-name="レイヤー 1"><g id="レイヤー_2-2" data-name="レイヤー 2"><g id="デザイン"><path class="cls-1" d="M2.15,93.79c0,2,.89,3.68,2.92,3.68S8,95.94,8,93.79s-.88-3.55-2.91-3.55S2.15,91.76,2.15,93.79ZM0,93.79c0-3.3,1.9-5.45,5.07-5.45s5.07,2.28,5.07,5.45-1.9,5.45-5.07,5.45S0,97.08,0,93.79Z"/><path class="cls-1" d="M16.22,99.24c-3.17,0-4.81-2.16-4.81-5.45s1.77-5.45,5.07-5.45a4.76,4.76,0,0,1,3.17,1,3.84,3.84,0,0,1,1.26,2.79H19.65a1.13,1.13,0,0,1-1-.63,2.06,2.06,0,0,0-2-1.14c-2,0-2.91,1.39-2.91,3.55s.89,3.55,2.79,3.55a2.24,2.24,0,0,0,2.4-1.91H21C20.66,97.85,18.88,99.24,16.22,99.24Z"/><path class="cls-1" d="M22.31,89.73a1,1,0,0,1,.88-1.14H30v1.9H24.46v2.29h4.18v.76a1,1,0,0,1-1.14,1.14h-3v2.79H30v1.9H22.43V89.73Z"/><path class="cls-1" d="M34.85,95.18h2.92l-1.52-4.43Zm2.67-6.59,3.8,10.52H39L38.28,97H34.22l-.63,2.15H31.31l3.54-9.88a1,1,0,0,1,1-.76Z"/><path class="cls-1" d="M43.85,88.59H45l4.31,7.23V88.59h2.16V99.11H49.18l-4.31-7.22v7.22H42.71V89.73A1.14,1.14,0,0,1,43.85,88.59Z"/><path class="cls-1" d="M58.68,96.07a2.49,2.49,0,0,0,.38,1.27,1.75,1.75,0,0,0,.76.89,2.57,2.57,0,0,0,1,.5,3.42,3.42,0,0,0,1.14.13,4.16,4.16,0,0,0,1.26-.13,2,2,0,0,0,.89-.5,2.73,2.73,0,0,0,.51-.76,2.14,2.14,0,0,0,.13-.89,2.39,2.39,0,0,0-.26-1,3.3,3.3,0,0,0-.76-.63,3.92,3.92,0,0,0-1.14-.38,4.4,4.4,0,0,0-1.27-.25,5,5,0,0,1-1.26-.38,4.76,4.76,0,0,1-1.14-.51,1.73,1.73,0,0,1-.77-.89,2.52,2.52,0,0,1-.25-1.39A3.89,3.89,0,0,1,58.17,90a2.05,2.05,0,0,1,.77-1,5.4,5.4,0,0,1,1.14-.63,7.16,7.16,0,0,1,1.64-.25,7.25,7.25,0,0,1,1.65.25,2.29,2.29,0,0,1,1.14.76,6.18,6.18,0,0,1,.76,1,4.42,4.42,0,0,1,.26,1.27h-1a3.6,3.6,0,0,0-.25-1.14,3.31,3.31,0,0,0-.64-.76,1.14,1.14,0,0,0-.88-.38,2.76,2.76,0,0,0-1-.13,5.31,5.31,0,0,0-1.39.26,2.29,2.29,0,0,0-.89.63,2.55,2.55,0,0,0-.5.76,1.06,1.06,0,0,0,0,.89,1.9,1.9,0,0,0,.38.89,2,2,0,0,0,.88.5l1.14.38c.38.13.76.13,1.27.26s.76.25,1.27.38a2.46,2.46,0,0,1,1,.5,5.34,5.34,0,0,1,.76.89,2.45,2.45,0,0,1,.26,1.39,3.43,3.43,0,0,1-1,2.41,5,5,0,0,1-3,.89,7.85,7.85,0,0,1-1.65-.25,3.94,3.94,0,0,1-1.26-.64A2.69,2.69,0,0,1,58.05,98a3.38,3.38,0,0,1-.26-1.65Z"/><polygon class="cls-1" points="68.06 99.37 68.06 88.21 69.08 88.21 69.08 93.03 75.79 93.03 75.79 88.21 76.81 88.21 76.81 99.37 75.79 99.37 75.79 93.92 69.08 93.92 69.08 99.37 68.06 99.37"/><rect class="cls-1" x="79.97" y="88.21" width="1.01" height="11.15"/><path class="cls-1" d="M89,94.55v-.89h4.82v5.83H92.9v-1.9a5.26,5.26,0,0,1-.63.89,5.4,5.4,0,0,1-.89.76,2.07,2.07,0,0,1-1.14.38,6,6,0,0,1-1.52.13,4.71,4.71,0,0,1-1.9-.38,3.58,3.58,0,0,1-1.52-1.14,4.68,4.68,0,0,1-1-1.91,9.72,9.72,0,0,1-.38-2.66,13.61,13.61,0,0,1,.26-2.28,4.53,4.53,0,0,1,1-1.9,4.19,4.19,0,0,1,1.65-1.27,7.48,7.48,0,0,1,2.28-.5,7.25,7.25,0,0,1,1.65.25,4.91,4.91,0,0,1,1.39.63,3.17,3.17,0,0,1,1,1.14,8.45,8.45,0,0,1,.63,1.52H92.65a4.4,4.4,0,0,0-.51-1.14,4.87,4.87,0,0,0-.76-.88,3.69,3.69,0,0,0-1-.51,3.42,3.42,0,0,0-1.14-.13,5.11,5.11,0,0,0-1.9.38,2.82,2.82,0,0,0-1.27,1.14,4.69,4.69,0,0,0-.76,1.65,5.64,5.64,0,0,0-.38,2.41,8.3,8.3,0,0,0,.25,1.77,4.38,4.38,0,0,0,.76,1.53,3.88,3.88,0,0,0,3,1.39,2.1,2.1,0,0,0,.89-.13,4.54,4.54,0,0,0,1.77-.88,4,4,0,0,0,.64-.89l.38-1.14a3.82,3.82,0,0,0,.13-1.27Z"/><path class="cls-1" d="M98.48,95.06h4.44l-2.16-5.83Zm-2.79,4.31,4.44-11.16h1.14l4.31,11.16h-1.14l-1.27-3.55H98.1l-1.27,3.55Z"/><path class="cls-1" d="M116,94.42h-2.54v2.79H116c1,0,1.77-.25,1.77-1.39S117,94.42,116,94.42Zm-.13-4h-2.41v2.28h2.41c.89,0,1.52-.25,1.52-1.14s-.5-1.14-1.52-1.14Zm.26,8.74h-4.82v-9.5a1.13,1.13,0,0,1,1.14-1.14h3.93c2,0,3.3.76,3.3,2.66a2.06,2.06,0,0,1-1.27,2.15A2.5,2.5,0,0,1,120,95.82c-.13,2.28-1.65,3.29-3.93,3.29Z"/><path class="cls-1" d="M122.31,88.59h1v8.62h5.2v1.9h-7.35V89.73A1.33,1.33,0,0,1,122.31,88.59Z"/><path class="cls-1" d="M133.33,95.18h2.92l-1.52-4.43Zm2.79-6.59,3.8,10.52h-2.28L136.88,97h-4l-.76,2.15h-2.29l3.55-9.88a1,1,0,0,1,1-.76Z"/><path class="cls-1" d="M145.12,99.24c-3.29,0-4.82-2.16-4.82-5.45s1.65-5.45,5.07-5.45a4.75,4.75,0,0,1,3.17,1,3.85,3.85,0,0,1,1.27,2.79h-1.27a1.12,1.12,0,0,1-1-.63,2.06,2.06,0,0,0-2-1.14c-2,0-2.91,1.39-2.91,3.55s.88,3.55,2.78,3.55a2.33,2.33,0,0,0,2.41-1.91h2.16A4.5,4.5,0,0,1,145.12,99.24Z"/><path class="cls-1" d="M152.09,88.59h1V92.9l4.18-4.31h2.79l-4.19,4.31,4.57,6.34h-2.67l-2.66-3.68c-.5-.63-.88-.88-1.26-.76a.81.81,0,0,0-.64.76v3.68h-2.15V89.86C151.08,89.1,151.46,88.59,152.09,88.59Z"/><path class="cls-1" d="M167.3,96.2c0-.51-.25-.89-1-1a18.47,18.47,0,0,1-2.16-.63c-2-.51-3-1.52-3-2.92,0-2.28,1.39-3.29,3.93-3.29s3.8,1.14,3.93,3.29h-1.27a1.28,1.28,0,0,1-1-.63,1.9,1.9,0,0,0-1.9-.89c-1.15,0-1.65.38-1.78,1.27,0,.64.63,1.14,2,1.52a19.77,19.77,0,0,1,2.53.76,2.29,2.29,0,0,1,1.65,2.66q-.19,3-4.18,3.05c-2.79,0-4.18-1.14-4.31-3.43h2.15c.13,1.14.76,1.65,2.16,1.65S167.3,97.08,167.3,96.2Z"/><path class="cls-1" d="M132.32,17.87c-25.22,12.8-33.84-12.55-59.19.25L77.69,7.6c25.23-12.8,33.46,14.07,58.69,1.27C135,12.42,133.84,14.45,132.32,17.87Z"/><path class="cls-1" d="M123.57,38c-25.22,12.8-34.09-11.78-59.31.89l4.56-10.52C94,15.59,102.28,42.46,127.5,29.66,125.86,33.33,125.1,34.6,123.57,38Z"/><path class="cls-1" d="M115,57.54C89.73,70.34,80.48,47.15,55.13,60L59.7,49.43C84.92,36.76,93,63.5,118.38,50.7,116.86,54.25,116.35,54,115,57.54Z"/><polygon class="cls-1" points="68.31 0 33.46 80.73 42.08 77.95 74.14 5.7 68.31 0"/></g></g></g></g></svg>