<svg xmlns="http://www.w3.org/2000/svg" viewBox="0 0 129.65 110"><defs><style>.cls-1{fill:#bfbfbf;}.cls-2{fill:#13203d;}.cls-3{fill:#f2c81f;}.cls-4{fill:#fff;}.cls-5{fill:#41a538;}.cls-6{fill:#999;}</style></defs><g id="レイヤー_2" data-name="レイヤー 2"><g id="レイヤー_1-2" data-name="レイヤー 1"><path class="cls-1" d="M23.89,45.66A1.43,1.43,0,0,0,25,45.14c0-.17,0-.33-.05-.49l-.3.21a.77.77,0,0,0,.21,0c0,.32-.3.45-.59.58,0-.1,0-.19.05-.29A4.54,4.54,0,0,0,23.89,45.66Z"/><path class="cls-1" d="M24.45,40.2a19.41,19.41,0,0,0,.05,2.16c.09.12.18.24.28.35C24.7,41.94,24.6,41.19,24.45,40.2Z"/><path class="cls-1" d="M42,42.14a0,0,0,0,1,0,0A1.8,1.8,0,0,0,42,42v0a3.09,3.09,0,0,0-.53.09A1.65,1.65,0,0,0,42,42.14Z"/><path class="cls-1" d="M34.57,45.54a2.82,2.82,0,0,0-1.58.33c.84-.08,1.68-.12,2.5-.12l-.66,0Z"/><path class="cls-1" d="M80.7,9.83A9.45,9.45,0,0,0,81.62,9l-.34-.19L81,9.3C80.86,9.17,80.51,9.73,80.7,9.83Z"/><path class="cls-1" d="M23.83,39.55A4,4,0,0,0,24.29,42C24.27,41,24.26,39.92,23.83,39.55Z"/><path class="cls-1" d="M49.17,8.88a.48.48,0,0,1,0-.32c-.12,0-.31,0-.32.14C49.07,8.63,48.89,9.06,49.17,8.88Z"/><path class="cls-1" d="M40.9,29.14a.51.51,0,0,1,.24.16l.59-.35C41.45,29,41.17,29.09,40.9,29.14Z"/><path class="cls-1" d="M33.64,45l.14,0L33.69,45Z"/><path class="cls-1" d="M27.13,40.18c-.55-.16-1.22-.5-1.62-.33C26,40,26.55,40.51,27.13,40.18Z"/><path class="cls-1" d="M36,23.9c.1.25.17.54.38.64C36.34,24.27,36.33,23.9,36,23.9Z"/><path class="cls-1" d="M38.58,27.83c.75.32,1,1.24,1.83,1.48,0-.09.07-.14.14-.18A5.28,5.28,0,0,0,38.58,27.83Z"/><path class="cls-1" d="M27.26,40c.44,0,.68.31,1.11.35C28.12,40.14,27.58,39.8,27.26,40Z"/><path class="cls-1" d="M58.62,10a4,4,0,0,0-5-3.23L49.47,8.38a17.78,17.78,0,0,0,.25,2.41l-.27.19c-.09-.44-.17-.9-.24-1.4a1.58,1.58,0,0,1-.5-.91l-2,.75c-2.19,1.08-4.26,2.13-4.6,2.35s-.06,2.43,1.32,4.43l2.39,3.45-.07,0L43.4,16.26a3.87,3.87,0,0,0-5.86-.71l-.46.5a.55.55,0,0,0,.22.14c-.12.29-.19.12-.31-.05L34.38,19a14.17,14.17,0,0,0,1.18,3l-.23.5,1,1A13.83,13.83,0,0,1,36.85,25a3.92,3.92,0,0,0,.67,1.36l-.42.48L37,26.79c-.2-1.09-1.2-1.95-1.54-3.18-.42-1.52-1-3.07-1.32-4.32l0,0-2.64,2.84a4.62,4.62,0,0,0,.4,1.24c.54-.37,1,.78,1.35,1.24-.71-.13-.82-1.07-1.52-1.21.3.68.5,1.48.76,2.22a7.41,7.41,0,0,1-1.16-3.31l-.21.23a3.9,3.9,0,0,0,1.24,5.79l1.38.8a.35.35,0,0,0,0-.11.64.64,0,0,1,.08.14l1.12.64,0,.07-1-.56a6.79,6.79,0,0,1,.5,1.34l-.11.17c-.1-.5-.35-1.06-.48-1.56l-1.46-.84a3.93,3.93,0,0,0-4,0,44.18,44.18,0,0,0,5.35,3.48l-.19.32a1.57,1.57,0,0,0-.82.14c-1.48-1.42-3-2.47-4.57-3.77a4,4,0,0,0-1.34,1.69l-.81,2.58a2.64,2.64,0,0,0,.08.49c0-.15,0-.32.09-.41.08.69-.73.84-.37,1.72-.24.18-.51.35-.47.71a33.49,33.49,0,0,1,3.26,1.29,18.19,18.19,0,0,0,1.44,1.7l.91.09-.06.22a1.48,1.48,0,0,0-.72,0c.11.16.43.29.27.5a.84.84,0,0,1,.29.1l-.07.25a3.59,3.59,0,0,0-1.95-1.29c.39-.34-.24-.58-.19-1.06a8.27,8.27,0,0,1-3.26-1.75h0L23.94,39c.17-.07.21-.16.23.13.45-.22,1,.13,1.72-.08-.06.36.84.21.68.42,1.28-.14,2.09.84,3,.86.18,0,.2.09.13.21a2.27,2.27,0,0,1,.55,0c0,.1-.05.19-.07.3-.35,0-.72,0-1-.07-.72-.07-1.93-.32-3.17-.35-.39-.54-1.13-.6-1.72-.87A8.87,8.87,0,0,1,25,42.93,4,4,0,0,0,27.45,44l2.22.18v.09l-2.23-.17a4,4,0,0,0-2.3.48c0,.3.06.58.11.84a.2.2,0,0,0-.31.22,30.86,30.86,0,0,1,4.61.09c0,.1,0,.2,0,.3a7.65,7.65,0,0,0-.78.16,2.21,2.21,0,0,1,.78-.06,1.93,1.93,0,0,0,0,.24l-.19,0c-.78,0-1.59,0-2.45,0-.58,0-1.51-.17-2.45-.17a7.38,7.38,0,0,0-.89.06,5.38,5.38,0,0,0-.39,1.9,38.74,38.74,0,0,1,9.24-2.22v-.36l.3,0c0-.23-.15-.13-.3-.1v-.1l.14,0s0,0,0,.07c.35,0,.72,0,1.09-.06a.61.61,0,0,0-.21.18,3.1,3.1,0,0,1,1-.12l-.12-.08a17.74,17.74,0,0,0,2.06-.12c.05.11.14,0,.18.18l-.09.42h.11c0-.13.08-.27.13-.4.44.18.84,0,1.16.49h.08a3.22,3.22,0,0,0-.24-.29c.19,0,.32,0,.28.23.14-.09,0-.22.19-.31-.21-.19,0-.6,0-.88a1.31,1.31,0,0,1,0,.88.92.92,0,0,1,0,.4h-.05l.17,0a4.18,4.18,0,0,1,.08-1.71c.16.6-.1,1.13-.07,1.71h.09a1.45,1.45,0,0,0,0-.36,1.67,1.67,0,0,1,.92.1c.05-.07-.1-.12-.21-.12a3.69,3.69,0,0,1,1.67.14s0-.07,0-.11a7.52,7.52,0,0,1,.82,0h0a.49.49,0,0,1,0-.12,2.92,2.92,0,0,1-1.47,0c-.26-.11-.47-.41-.75-.62s-.66-.33-.77-.55A3,3,0,0,1,39,42.15a.15.15,0,0,0,.14,0,16.31,16.31,0,0,0,1.08,3.2c.15-.21-.08-.24-.16-.42-.37-.83-.5-1.91-.84-2.77.14-.14.21.07.35-.06,0,0-.09-.06-.14,0a8,8,0,0,1,2.71.29.32.32,0,0,1,0-.06.58.58,0,0,1-.05-.14A2.48,2.48,0,0,1,41,42c.32,0,.62-.08.94-.11a.08.08,0,0,1,0,0,5.71,5.71,0,0,1-2.15-.2l-.17.12a7.69,7.69,0,0,0-4.11-.2A25.31,25.31,0,0,0,37,39.35a19.62,19.62,0,0,0-2.53-.43c-.34,0-.71.13-1,.11-.08,0-.16,0-.25,0s.05-.19.07-.29c1.25.16,2.52.34,3.81.49.56-1,1-1.91,1.28-2.52A4.38,4.38,0,0,0,38.67,35a2,2,0,0,1-.87-.72c-.37-.59-.31-.93-.65-1.21a3.27,3.27,0,0,0-1.68-.61c0-.07.06-.12.08-.18.7.15,1.41.23,1.57.64,0,0,.27.23.42.39a5.36,5.36,0,0,0,1.06.82,5.35,5.35,0,0,0-.29-1,5.36,5.36,0,0,1,1.87.35c.39.1.88.1,1.2.22,0,0,0-.08,0-.12-.71,0-1.36-.37-2.07-.4-.06-.06,0-.12,0-.07A9.77,9.77,0,0,1,41,32.94c.13.18.25.37.38.56l0-.16h0l-.07-.11.08.07c0-.09,0-.17,0-.26v0l-.19-.32c.07.07.13.18.21.18s0,0,0-.08a2.69,2.69,0,0,0-.88-.55c0,.05.06.1,0,.14A3.22,3.22,0,0,1,38,31.33c-.15-.19-.3-.39-.44-.6a8.42,8.42,0,0,0,2.78-.95,19.24,19.24,0,0,0-2-2.05l.27-.37a18.58,18.58,0,0,0,2,1.37,6.38,6.38,0,0,1,.28-1.84l.16-.07a8,8,0,0,0-.25,2c.62-.33,1.07-.36,1.41-.82.18.12.09.14.35,0,0,.28-.35.32-.61.43a6,6,0,0,0,.61,0l.83-.57.08-.16a0,0,0,0,0,0,0,.6.6,0,0,0-.11-.06c0-.08.11-.09.2-.11l0,0a6.74,6.74,0,0,0-1-1.51l.24-.13c.16.22.22.53.56.68-.15-.17-.29-.5-.46-.73l.49-.27.06-.27a5.73,5.73,0,0,0,.35,1.76,18.3,18.3,0,0,1,3-3.87A5.32,5.32,0,0,0,46.5,21a.65.65,0,0,0-.15.18.54.54,0,0,1,.11-.26,5,5,0,0,0-.29-.62l.1-.06c.12.17.25.33.38.49.48-.44,1.36-.83,1.59-1.35,0,.05,0,.1.07.16-.13.13-.25.27-.38.41l.52.06a4.86,4.86,0,0,1,.11.55l-1.06-.15c-.17.29-.47.33-.74.44A11.11,11.11,0,0,0,48,22.1h0a19,19,0,0,1,1.88-1.32q-.37-.11-.78-.18a5.47,5.47,0,0,1,0-.57c.57,0,1.15.1,1.48.17-.13,0-.11-.17-.14-.29.19-.09.32,0,.38-.31,0,.22-.07.47-.12.73l.52-.26A4.27,4.27,0,0,0,51,19c0,.25.13.52-.15.57a2.26,2.26,0,0,0,0-.52L51,19l.3-.11c0,.41,0,.81,0,1.18l-.06,0a16,16,0,0,1,3.57-1.21,7.59,7.59,0,0,1-.52-1.07,5.37,5.37,0,0,1,.67,1,11.09,11.09,0,0,1,2.21-.25,10.85,10.85,0,0,1,1.64-.71,5.27,5.27,0,0,0,.64-2.18v-.18a4.41,4.41,0,0,0-.07-1.09ZM33.46,28.15c-.51-1-.57-1.3-1-2.32A6,6,0,0,1,33.46,28.15Zm-.07.09c.23.05.24.39.29.66C33.43,28.7,33.52,28.46,33.39,28.24Zm3.24,16.94c.4-.06.76.16,1.16.16C37.51,45.47,37,45.28,36.63,45.18Zm.15-.17a2.44,2.44,0,0,1,1.09.27C37.51,45.17,37.11,45.26,36.78,45Zm.08-.17c.33.11.72,0,1,.26C37.57,45,37,45.07,36.86,44.84Zm.37-.31a3.37,3.37,0,0,0,.59.19c-.14.19-.45-.2-.7-.06.06.14.48.09.65.27a4.28,4.28,0,0,0-.73-.1c-.08-.12.06-.21.19-.3,0,0,0-.07.07-.1.21,0,.57,0,.61.23C37.67,44.66,37.48,44.48,37.23,44.53Zm.86,0c.08-.35-.3-.22-.47-.4.14,0,.12-.07.23-.16-.09.19.17.2.28.23S38.24,44.45,38.09,44.54Zm0-.7c-.09.08-.12-.13-.18-.17s.17-.15.16-.24C38.29,43.46,38,43.71,38.14,43.84Zm.41.51c.49.41,1,.72,1.49,1.12a5,5,0,0,1-1.48-.24c-.1.08.1.2.16.13,0,.17-.25.1-.33.1A4.58,4.58,0,0,1,38.55,44.35Zm-.09-.24c-.53.07-.21-.68,0-1C38.5,43.48,38.41,43.79,38.46,44.11ZM38,43.53c-.54.56-1.21,1.35-1.77,1.45-.14-.13,0-.41-.22-.33.2.25-.06.32-.07.47a12.06,12.06,0,0,1-1.78.11L34,45.16a1.13,1.13,0,0,0-.34.1l-.47,0a1.35,1.35,0,0,0-.58,0,3.69,3.69,0,0,0,.75-.42,5.45,5.45,0,0,0-1-.3c0-.07,0-.15,0-.23a5.9,5.9,0,0,0,2.68-2.2c-.1,0-.13.11-.26.13s-.1-.12-.2-.16a21.78,21.78,0,0,1,2.92.07c0-.23-.23,0-.3-.15.25,0,.55-.09.77.07.17,0,.39-.27.5,0-.26.13-.64-.05-.78.11.26,0,.53,0,.79,0A1.79,1.79,0,0,1,38,43.53Zm-4-1.64a3.59,3.59,0,0,1,.75.1s-.17,0-.2,0S34.17,42,34,41.9Zm.57-.4.43.16-.3.05C34.55,41.62,34.41,41.53,34.54,41.49Zm.22.28s0,0-.06-.05l.36,0,.26.12.12-.17c1.41-.14,2.91-.39,4,.24-1.63-.14-3.36.13-5-.08-.05,0-.12,0-.15-.05A3.7,3.7,0,0,0,34.76,41.77Zm-.9-.23c0,.08.09.13.2.17l-.53,0-.84-.28c0-.09,0-.18,0-.28h0C33.16,41.26,33.25,41.65,33.86,41.54Zm2.79-10.72a.67.67,0,0,1-.16-.18l.17.05A.1.1,0,0,0,36.65,30.82Zm.31.33,0,.07L36.71,31h0a1.56,1.56,0,0,1,.62.23C37.29,31.41,37.07,31.1,37,31.15Zm.46.5c-.1-.11-.21-.23-.32-.33a4.16,4.16,0,0,0,.62.27c.05.14-.43-.18-.28.07Zm3.39.81c.06.18.23.17.2.29-.26.06-.42-.25-.67-.2C40.38,32.39,40.66,32.59,40.81,32.46Zm-.14.28c-.65,0-1.49.4-2.21.13,0,0,0,.1,0,.15a.32.32,0,0,1-.28-.09.25.25,0,0,1,0-.07c.46-.07.87.07,1.33,0a4.69,4.69,0,0,1-1.44-.25,6.16,6.16,0,0,0-.33-.55,10.06,10.06,0,0,0,1.38.42c.11-.13-.15,0-.16-.13A5.22,5.22,0,0,1,40.67,32.74Zm-2.07-.62c0,.17-.32,0-.43-.06C38.34,32,38.44,32.18,38.6,32.12Zm-.6-.31c-.09,0-.06.09,0,.15-.16-.14-.35-.11-.5-.26.21,0,.38.08.58.08C38.07,31.83,38,31.84,38,31.81Zm0-.14a5.37,5.37,0,0,1-1.17-1,3.11,3.11,0,0,0,.53,0C37.6,31,37.81,31.35,38,31.67Zm-.71-15.32A15.22,15.22,0,0,1,39,18.66l-.16.13c-.29-.52-.59-1-.88-1.6-.09,0,0,.08,0,.07-.1.29-.28-.13-.13-.21C37.57,16.68,37.25,16.74,37.33,16.35Zm1.85,10.23.13-.17,0,0Zm1.61-.64-4.47-4.37,2.34-2.38,1.07,1-1.15,1.18.65.63,1-1,1,1-1,1L42,24.74ZM44,23l-.05-.09.34-.21A1,1,0,0,1,44,23Zm.69-.54c0-.19.24-.3.44-.41a.25.25,0,0,0,0,.07A1.16,1.16,0,0,1,44.68,22.46Zm.58-.49Zm.9-.81c-.22.21-.49.61-.77.7a.1.1,0,0,1,0,0C45.62,21.61,45.75,21.29,46.16,21.16ZM48.37,19l.07-.06a.72.72,0,0,1,.27.17l-.09.09A.85.85,0,0,0,48.37,19ZM49,20.58l-.26,0c0-.19,0-.37-.07-.56L49,20a.94.94,0,0,0,.09.12A2.29,2.29,0,0,0,49,20.58Zm0-1.77,0,0v.06l-.13.12-.17-.18.93-.46C49.4,18.47,49.2,18.64,49,18.81Zm.49-.9-.4.15a5.88,5.88,0,0,0,.37-.83l0,.09c0,.23-.06.28.16.36Zm1,1.75c0-.07.09-.07.15-.11,0-.27-.21-.29-.08-.45C50.76,19.17,50.73,19.88,50.47,19.66Zm3.85-3.92a2,2,0,0,1-.41,1.09,2.41,2.41,0,0,1-1,.74,2.38,2.38,0,0,1-1.24.18,2,2,0,0,1-1.06-.49,3,3,0,0,1-.75-1.12L48.35,12.5l1.57-.64,1.51,3.7c.22.53.52.73.88.58s.44-.5.22-1L51,11.4l1.57-.64,1.48,3.64A2.91,2.91,0,0,1,54.32,15.74Z"/><path class="cls-1" d="M41,29.39c-.05-.05-.1-.11-.16-.16-.28,0-.24.17-.39.23a1,1,0,0,0,.1.17C40.69,29.55,40.84,29.48,41,29.39Z"/><path class="cls-1" d="M81,8.63l-.07,0a.44.44,0,0,1,0,.1Z"/><path class="cls-1" d="M92.34,20c-.34-.1-.41,0-.76.15a21.24,21.24,0,0,1-.94,2.37c-.35.65-1,1.16-1.3,1.78l-.43.36.23-.44c-.23-.06-.2.34-.32.14.24-.28,1-.6.78-.94-.2.48-1.16.86-1.15,1.24,0-.07.33-.27.32-.14-.32.25-.63.47-.93.71a3.39,3.39,0,0,1,.35.49h0a2.69,2.69,0,0,0,.27-.32l.08.42-.22.15a6.46,6.46,0,0,1,.81,2.75,1.1,1.1,0,0,1,.09.14c.25-.07.66,0,.64-.28-.13.09-.39-.08-.19-.11,1.85-.45,3.14-1.58,4.77-1.75,0-.25.25-.2.19-.35.32.05,1-.17.76-.14s-.3.08-.35,0c.27,0,.51-.33.74-.21a17.18,17.18,0,0,0,.5-2.87l0,0,0,0,0-.24c.16.22-.13.5.1.53a7.76,7.76,0,0,0,.12-1.67c-.15.11-.06.37-.17.5-.15-.86.84-2.14-.27-2.39.11,0,.2-.06.14-.19-1.49.07-3.26.23-4.09.3C92.25,19.82,92.34,19.82,92.34,20Zm2.43,3L90,27l-1.1-1.29,4.77-4Zm-3-2.59c0-.17.45,0,.6,0C92.27,20.62,92,20.31,91.81,20.37Z"/><path class="cls-1" d="M91.2,34.67a4.08,4.08,0,0,0,.86,0c-.56-1.37-1.17-2.67-1.8-4a5.31,5.31,0,0,0-.86.14l-.46.12v0c0,.18-.08.36-.13.53h0c.42.63.83,1.28,1.15,1.81s.51.84.6,1A.8.8,0,0,0,91.2,34.67Z"/><path class="cls-1" d="M89.29,29.18l-.14-.05A8.58,8.58,0,0,1,89,30.68h.29a1,1,0,0,0,.74-.3c-.25-.2-.34-.62-.59-.83a.92.92,0,0,0-.3.07,1.48,1.48,0,0,1,0-.21A.4.4,0,0,0,89.29,29.18Z"/><path class="cls-1" d="M87.47,39.81c.25-.68.86-.6,1.3-.8a5.48,5.48,0,0,1,1.2-.64L89.74,38c-.15,0-.14.14-.23.05.07.08-.15.13-.19.19a6.76,6.76,0,0,0-1.81.81l-.16.07C87.4,39.37,87.44,39.59,87.47,39.81Z"/><path class="cls-1" d="M92.25,34.46s0,.11.07.17a4.53,4.53,0,0,0,.49-.08c-.31-1.71-.93-3.28-2.28-3.8.24.71.85,1.72,1.18,2.62.13-.17.15,0,.41-.07s-.05-.09,0-.23c.1,0,.12.16.28.1,0,.08-.08.17,0,.16-.39.05,0,.37.14.76C92.18,33.9,92.69,34.4,92.25,34.46Z"/><path class="cls-1" d="M96.59,25.63a2.18,2.18,0,0,0-.65.74c-.64-.14-1.07.53-1.58.77,1.15,0,2.37-1,3.73-1.32-1.77,1.13-4.88,1.41-5.54,3.23-.1,0-.1-.13-.13-.22-1,.33-1.06,1.18-1.89,1.46.42.18,1.14.45,1.18.8a4,4,0,0,0-1.34-.7,3.84,3.84,0,0,1,2.11,2.06c3-.83,5.94-2.06,8.89-3a3.89,3.89,0,0,0,.17-2.79c-.14-.26-.56-.89-1.1-1.68-.77.26-1.55.57-2.12.69a14.55,14.55,0,0,1,2-.81l-.24-.35C98.82,24.9,97.93,25.79,96.59,25.63Z"/><path class="cls-1" d="M92,28.6c-.34.13,0-.28-.24-.35-.64.16-1.1.07-1.77.25.31.4,1.36-.2,1.75.08-.63.15-1.56-.07-1.93.35C90.09,28.83,91.54,28.92,92,28.6Z"/><path class="cls-1" d="M92.85,36.79l-.15-.44a5.69,5.69,0,0,0-.35,1l.42-.11C92.88,37.06,92.45,36.34,92.85,36.79Z"/><path class="cls-1" d="M91.69,28.18c0-.12,0-.25-.07-.38-.2,0-.15.18-.4.15.14.33.13.26.36.1C91.58,28.14,91.48,28.22,91.69,28.18Z"/><path class="cls-1" d="M96.34,23.39c.18.7-.25,1.59-.34,2.34.72-.28,1.07-.81,1.78-1.11.31.11-.48.46-.55.33a2.54,2.54,0,0,1-.64.67,8.37,8.37,0,0,0,2.76-.9c-.67.05-.94.38-1.59.29.88-.25,1.49-.47,2.25-.63-.82-1.17-1.84-2.59-2.77-3.79a11.32,11.32,0,0,1-.62,4.32,23.88,23.88,0,0,0,.53-4.43c-.06-.08-.12-.17-.18-.24C96.35,20.86,97,22.7,96.34,23.39Z"/><path class="cls-1" d="M71.86,5.91l-3.4-.18a3.43,3.43,0,0,0-.41.61c-.25.49,0,1,0,1.42v.36l-.27,0c0-.17,0-.34,0-.52,0-.94-.11-1.28.4-1.85l-5.75-.31A3.88,3.88,0,0,0,58.71,10l.73,4.37a2,2,0,0,0,.57,1,2,2,0,0,0,.21.2,6.55,6.55,0,0,0,1.28.9c0-.2.07-.39.11-.58v.64a15,15,0,0,0,1.51.68h0l.31,0a5,5,0,0,1,3.71-.19c0-.18,0-.37,0-.55a2.35,2.35,0,0,1,.08.6h0a6.33,6.33,0,0,1,1.93,1.07,8.29,8.29,0,0,1,1.92.14,4.83,4.83,0,0,0,1.27-.84,5.53,5.53,0,0,0,.53-.55,4.94,4.94,0,0,0,1-1.8L75,10.91A3.91,3.91,0,0,0,71.86,5.91ZM59.57,7.2c.23.7,1,1.16,1,1.87C60.18,8.43,59.52,7.57,59.57,7.2Zm1.13,2.86c.19.88.51,2.73.7,3.8-.19,0-.1-.36-.17-.51-.17.16.07.58.07.85-.3,0-.5-.83-.19-1A15.11,15.11,0,0,1,60.7,10.06Zm.9,5.81c0-.08-.07-.17-.1-.26a2.45,2.45,0,0,1-.08-.29.56.56,0,0,1,.15-.54c0,.17,0,.35,0,.54s0,.2,0,.29A1.13,1.13,0,0,1,61.6,15.87Zm2.47-.56h0l-.11,0a6.88,6.88,0,0,1-.87.3l-.3.08c-.14,0,0,.23-.13.26-.07-.13-.16-.24-.24-.36l-.26-.34A3.53,3.53,0,0,0,61,14.34c.37,0,.35,0,.48-.25.12.73.75.79,1.12,1.2a1,1,0,0,1,.19.29c.18-.09.34-.19.51-.29l.31-.19.07.16.43,0Zm3.36.87a2.44,2.44,0,0,0-.09.37c-.18-.05-.14-.21-.07-.4a1.08,1.08,0,0,0,.08-.54v0h.11l0,0C67.55,15.76,67.49,16,67.43,16.18ZM69,15.25l-1.91-.1-.95-2.59h-.06L66,15.1,64.27,15l.31-6.25,1.69.09-.12,2.6h0l1.11-2.55L69.15,9l-1.47,3Z"/><path class="cls-1" d="M92.25,18.56c.13.21-.24.69-.33,1,1.14.11,3-.26,3.87-.08.12-.09.24-.18.35-.28-.27-.32-.52-.61-.73-.82a3.74,3.74,0,0,0-2.78-1.1c-.77,1.73-1.58,3.46-2.44,5.51A30.3,30.3,0,0,0,92.25,18.56Z"/><path class="cls-1" d="M95.2,33.75l4-1.79a4.12,4.12,0,0,0,2-2.29,12.12,12.12,0,0,1-3,.83c0,.06.11,0,.18,0-1.39.37-3,1.15-4.54,1.62.34.15.88-.16,1.15-.29s.75,0,.18.05c-.71.62-1.93.2-2.71.74.39.13,1.33-.5,1.63-.07a3.13,3.13,0,0,0-1.42.27c.07.52.2,1.08.3,1.62A14.49,14.49,0,0,0,95.2,33.75Z"/><path class="cls-1" d="M92.58,33c0,.31.12.26.17.44C93,34.5,93,33.42,92.58,33Z"/><path class="cls-1" d="M91.79,27.77c.24.2.15.82.44.94C92.29,28.37,92,27.53,91.79,27.77Z"/><path class="cls-1" d="M90.12,30.44a9.24,9.24,0,0,0,1.62-1.56c-.87.14-1.54.11-2,.6,0-.17.37-.36,0-.4C89.38,29.53,90,29.9,90.12,30.44Z"/><path class="cls-1" d="M94.38,26.82a11.25,11.25,0,0,0-2.19.72c-.07.17.29.46.24.9A7,7,0,0,0,94.38,26.82Z"/><path class="cls-1" d="M89.67,42.83c-.48,0-.83-1-1.23-1.8a5.77,5.77,0,0,1-.65-1.53c-.13.15-.28.31-.19.49.07,0,.15-.11.19,0,.35.85.9,1.69,1.26,2.61-.65-1-1-1.58-1.57-2.66,0,.09,0,.19,0,.29h0a9.32,9.32,0,0,0,1.79,2.67c-.41,0-.86.14-1.22-.07a6.13,6.13,0,0,1-.68.24c0,.15,0,.3-.07.43v0l.11,0a.22.22,0,0,1-.12.09c0,.08,0,.16,0,.23h0a1.5,1.5,0,0,0,.71-.2c0,.17.45-.15.51.08.34-.3.77-.25,1-.49.1.17.07.08.19,0,.28.14.65,0,1,.07a19.33,19.33,0,0,0,2.33.23c0-.15,0-.3,0-.45C91.88,42.94,90.72,42.87,89.67,42.83Zm-2.18.46c.25-.33.73-.2,1-.22C88.33,43.27,87.85,43.24,87.49,43.29Z"/><path class="cls-1" d="M79.82,11.09c.06-.92,1-1.39.62-2.24.31-.18.09.33.31.26.15-.25-.27-.54-.4-.71-.2.1.23.3,0,.47a1.87,1.87,0,0,0-.24-.65,3.89,3.89,0,0,0-5,2.72L73.92,15.2a3.19,3.19,0,0,0,.68,2.44l0,.06,0,0L75,17.5A10.36,10.36,0,0,0,76.06,17c.31-.25.38-.72.79-.86,0-.39.94-1.46,1.34-2.14.22-.37.34-.82.55-1.2A17.77,17.77,0,0,1,79.82,11.09Z"/><path class="cls-1" d="M104,47.85l.19-.07a4.52,4.52,0,0,1,.1-.75C104,47.18,104,47.55,104,47.85Z"/><path class="cls-1" d="M90.47,47.18c-.24-.25-.14-.77-.38-.94a.79.79,0,0,0,0-.59c.12-.1.28.05.22-.15-.12,0-.21-.14-.36-.06,0,.06,0,.11,0,.15a5.15,5.15,0,0,0-2.36-.18c-.1-.3-.52-.28-.39-.57l-.18,0c0,.16-.1.3-.16.45a4.35,4.35,0,0,1,.81.4,18.81,18.81,0,0,0,2.24-.09c.11.2,0,.37-.1.54.44.41,0,.71.23,1.1,0-.07,0-.17,0-.26a2,2,0,0,1,.35.74l.23,0A.76.76,0,0,1,90.47,47.18Z"/><path class="cls-1" d="M85.63,21.51c0,.39,0,.9,0,1.43a4.44,4.44,0,0,0,1-.88l2.91-3.34a3.88,3.88,0,0,0-.74-5.86l-1.36-.74a18,18,0,0,1-2.1,1.43l-.15-.08c.71-.51,1.44-1,2.12-1.41l-5.4-3-.15.21c-.15.18-.46.25-.61.43-.47.54-1,1.13-1.34,1.66a5.83,5.83,0,0,0-.62,1.28l-1,1.3-.2.92c-.61.88-1.34,1.82-2,2.63a3.73,3.73,0,0,1-.42.53.7.7,0,0,1-.48.19c.08-.08.19-.17.31-.27a1.84,1.84,0,0,0,.55-.68l-.94.51-.21.11a10.17,10.17,0,0,0,.79,1q.48.55,1,1.08l-.26.51a1.22,1.22,0,0,0,.19.12c.14-.34.3-.67.45-1l-.09-.05.09-.3.12-.5c.17-.67.31-1.37.47-2.06a5.4,5.4,0,0,1-.35,2.13,2.58,2.58,0,0,0-.08.86,1.19,1.19,0,0,0,.11.38c-.05.12-.1.24-.14.35a28.44,28.44,0,0,0,2.19,1.86,4,4,0,0,0,.84-.65,7.88,7.88,0,0,0,.55-.62c.28-.37.54-.75.8-1.12h0a11.34,11.34,0,0,1-.72,1.21,2.93,2.93,0,0,1-.57.6,2.75,2.75,0,0,1-.33.23,6.27,6.27,0,0,1,.79.11,12.87,12.87,0,0,1,2.29.79l.59.23c.24-.1.39-.25.33-.53s-.27.13-.5.09c-.07-.19.47-.32.57-.19a3.55,3.55,0,0,0-.37-2.68l.09-.12a7.14,7.14,0,0,1,.63,2.43c.21,0,.71-.42,1.12-.52-.27.37-.93.49-1.22.85a3.93,3.93,0,0,0,.55.89,5.75,5.75,0,0,0,.65-.34A3.68,3.68,0,0,1,85.63,21.51Zm3.15-7.27c.24.14-.1.23-.13.26a5.17,5.17,0,0,0-1.05,2.24A3.24,3.24,0,0,1,88.78,14.24Zm-1.4,2.7c0-.08.09-.08.15-.11-.31,1-.83,1.86-1.21,2.82C86.34,18.81,87.13,17.87,87.38,16.94Zm-4.17.93a3,3,0,0,1-.87,1,2.05,2.05,0,0,1-1.1.38A2.46,2.46,0,0,1,80,19a2.42,2.42,0,0,1-.94-.84A1.88,1.88,0,0,1,78.79,17a2.91,2.91,0,0,1,.38-1.3L81,12.25l1.49.79-1.88,3.54c-.27.51-.23.86.11,1s.66,0,.94-.49l1.88-3.53,1.49.8Zm1.18,1.06.08-.09a1.41,1.41,0,0,1,.39.38A2.29,2.29,0,0,0,84.39,18.93Zm.66.41C85,19.23,85,19,84.9,19a2,2,0,0,0-.33-.24l.05-.07c.76.39,1.56.77,1.69,1.39s-.36.87-.34,1.47c-.51-.51.3-.76.2-1.29S85.46,19.76,85.05,19.34Z"/><path class="cls-1" d="M87.66,25h0a9,9,0,0,0,3-3.44c.17-.39.18-.83.38-1.25.44-.94.91-2,1.36-3a4.26,4.26,0,0,0-2.79,1.49l-2.92,3.33-1.13,1.29,0,.18-.08,0v0l0,0A4.75,4.75,0,0,1,87.66,25Z"/><path class="cls-1" d="M101.11,42.65c.24-.13.18,0,.5-.09,0-.22-.09-.38-.25-.43C101.53,42.61,101,42.25,101.11,42.65Z"/><path class="cls-1" d="M94,41.14l.42-.08c.32-1.28-.72-2.71-1.43-3.51.14,1.68.8,3.72.57,5.1l.1.23A2.78,2.78,0,0,0,94,41.14Z"/><path class="cls-1" d="M94.71,41.24a4.35,4.35,0,0,1,.09,2.34,15.85,15.85,0,0,0,4-.57,14.09,14.09,0,0,0,2-.3c1-.56.11-1.48-.25-2.31a38.84,38.84,0,0,0-6.15.83c-.11.68.23,1.66-.21,2.15,0-.37.15-1-.07-1.32-.15.28-.06.7-.41.85.09.19.18.39.28.58a1.35,1.35,0,0,0,.75,0A19.26,19.26,0,0,0,94.71,41.24Z"/><path class="cls-1" d="M92.32,37.53c0,.13,0,.27-.06.4a4.22,4.22,0,0,0,.16,1.73c.12.39.29.88.5,1.45.16.41.34.86.54,1.32.13-1.46-.44-3.08-.66-5Z"/><path class="cls-1" d="M104.65,34.51a3.87,3.87,0,0,0-5.36-2.46l-4.06,1.78a5,5,0,0,0-2,1.6,1.87,1.87,0,0,1-.2,1c0-.2,0-.41-.06-.62l-.12.22A3.61,3.61,0,0,1,93,37.22c.64.67,1,1.76,1.57,2.47.23,0,.7-.29.7,0-.3.11-.38-.07-.68,0-.12.21.23.56.07.86,1.45,0,3.94-.6,5.53-.48-1.5.26-4.11.21-5.64.81,2-.2,3.94-.58,5.93-.62-.27-1-1-1.37-1.49-2-1.55.37-2.48,1.27-4.08,1.78a13.37,13.37,0,0,1,3.56-1.76c-1.18-.87-3.52-.22-5-.74a21.77,21.77,0,0,0,2.35.12c-.73-.36-1.92-.12-2.53-.64,1.93.26,3.89.79,5.7.92a46.5,46.5,0,0,0,4.15-2.73l0,.14c-1.3,1-2.84,2-4.06,2.81,1.19,1,1.84,2.8,2.62,4.38.2-.07.14-.31.17-.5.11.76,1.58,0,2.45.18,0,.08-.15.08-.13.18s.13-.1.23-.12,0,.15,0,.23a16.93,16.93,0,0,0-3.92.32c-.38,1-.8,1.93-1.23,2.9a9,9,0,0,1,2.48,0,2.2,2.2,0,0,1,2,1.67h0a12.09,12.09,0,0,1,.49-1.95,13.27,13.27,0,0,1,0,2.2,3.89,3.89,0,0,0,2.22-3.91Zm-8,4.87A13.2,13.2,0,0,1,95,40.56,7,7,0,0,1,96.7,39.38Z"/><path class="cls-1" d="M94.63,44.09c-.16,0-.21.13-.32.11.13.25.26.49.39.71A3.45,3.45,0,0,1,94.63,44.09Z"/><path class="cls-1" d="M100.38,43c-1.42.13-3.73.77-5.59,1-.1.29.09.77,0,1.09a12,12,0,0,0,1.33,1.84,8.47,8.47,0,0,1,3.12-1.09h0C99.66,44.89,100.05,43.94,100.38,43Z"/><path class="cls-1" d="M80.21,23a4.19,4.19,0,0,0,1.33.6l.07,0c-.6-.11-1.1-.66-1.69-.79A2.64,2.64,0,0,0,80.21,23Z"/><path class="cls-1" d="M93.2,48h.09c0-.17,0-.32,0-.49,0-.37,0-.73,0-1.1C93.27,46.94,93.24,47.46,93.2,48Z"/><path class="cls-1" d="M80.7,22.89c.44.34,1.07.91,1.69.6l.13-.06-.28-.06A15.32,15.32,0,0,1,80.7,22.89Z"/><polygon class="cls-1" points="83.55 23.4 83.55 23.4 83.57 23.39 83.55 23.39 83.55 23.4"/><path class="cls-1" d="M84.29,22.7a1.52,1.52,0,0,0-.38.68,4.37,4.37,0,0,1,.73,0h0A2.61,2.61,0,0,1,84.29,22.7Z"/><path class="cls-1" d="M76.9,20.29l.07.08.1-.27C77,20,77,20.16,76.9,20.29Z"/><path class="cls-1" d="M81,22.32a3.09,3.09,0,0,0-1.65,0l.06.05a17.09,17.09,0,0,0,2.66.78,5.38,5.38,0,0,0,1.33.06h.07l-.13-.05A14.73,14.73,0,0,0,81,22.32Z"/><path class="cls-2" d="M49.51,17.32l0-.09a5.77,5.77,0,0,1-.37.83l.41-.16a1.58,1.58,0,0,1,.16-.22C49.46,17.6,49.48,17.55,49.51,17.32Z"/><path class="cls-2" d="M61.57,14.78a.56.56,0,0,0-.15.54,2.45,2.45,0,0,0,.08.29c0,.09.07.18.1.26a1.13,1.13,0,0,0,0-.26c0-.09,0-.2,0-.29S61.57,15,61.57,14.78Z"/><path class="cls-2" d="M37.8,17c-.15.09,0,.51.13.22,0,0-.11-.05,0-.08.29.57.59,1.09.88,1.6l.16-.12a15.22,15.22,0,0,0-1.62-2.31C37.25,16.74,37.57,16.68,37.8,17Z"/><path class="cls-2" d="M63.59,15.1l-.32.19c-.17.1-.33.2-.51.29a1,1,0,0,0-.19-.29c-.36-.41-1-.47-1.12-1.2-.13.24-.11.25-.47.25a3.49,3.49,0,0,1,1.18.95l.26.34a2.82,2.82,0,0,1,.24.36c.12,0,0-.23.13-.26l.3-.08a6.38,6.38,0,0,0,.87-.3l.11,0h0l-.44,0Z"/><path class="cls-2" d="M60.52,9.07c0-.71-.72-1.17-1-1.87C59.52,7.57,60.18,8.43,60.52,9.07Z"/><path class="cls-2" d="M61.29,14.2c0-.27-.23-.69-.07-.85.08.15,0,.52.18.51-.19-1.07-.51-2.92-.7-3.8a15.11,15.11,0,0,0,.41,3.15C60.79,13.37,61,14.21,61.29,14.2Z"/><path class="cls-2" d="M88.78,14.24a3.24,3.24,0,0,0-1.18,2.5,5.17,5.17,0,0,1,1.05-2.24S89,14.38,88.78,14.24Z"/><path class="cls-2" d="M84.47,18.84l-.08.09a2.29,2.29,0,0,1,.47.29A1.41,1.41,0,0,0,84.47,18.84Z"/><path class="cls-2" d="M87.38,16.94c-.25.93-1,1.87-1.06,2.71.38-1,.9-1.82,1.21-2.82C87.47,16.86,87.36,16.86,87.38,16.94Z"/><path class="cls-2" d="M86.17,20.23c.1.54-.71.78-.2,1.29,0-.6.44-1,.34-1.47s-.93-1-1.69-1.38l-.05.06a2,2,0,0,1,.33.25c.08.06,0,.25.15.36C85.46,19.76,86.08,19.78,86.17,20.23Z"/><path class="cls-2" d="M95,40.56a13.2,13.2,0,0,0,1.68-1.18A7,7,0,0,0,95,40.56Z"/><path class="cls-2" d="M91.81,20.37c.2-.06.46.25.6,0C92.26,20.34,91.85,20.2,91.81,20.37Z"/><path class="cls-2" d="M33.39,28.24c.13.22,0,.46.29.66C33.63,28.63,33.62,28.29,33.39,28.24Z"/><path class="cls-2" d="M32.42,25.83c.47,1,.53,1.36,1,2.32A6,6,0,0,0,32.42,25.83Z"/><path class="cls-2" d="M38.6,32.12c-.16.06-.26-.17-.43-.06C38.28,32.14,38.56,32.3,38.6,32.12Z"/><polygon class="cls-2" points="45.26 21.97 45.26 21.97 45.27 21.97 45.26 21.96 45.26 21.97"/><path class="cls-2" d="M37.72,31.59a4.24,4.24,0,0,1-.62-.28l.32.34h0C37.29,31.41,37.77,31.73,37.72,31.59Z"/><path class="cls-2" d="M37.32,31.2A1.63,1.63,0,0,0,36.7,31h0l.29.24a.21.21,0,0,1,0-.06C37.07,31.1,37.29,31.41,37.32,31.2Z"/><path class="cls-2" d="M37.47,31.7c.15.15.34.12.5.26,0-.06-.06-.11,0-.15s.07,0,0,0C37.85,31.78,37.68,31.66,37.47,31.7Z"/><path class="cls-2" d="M39.12,32.48a10,10,0,0,1-1.38-.41,5,5,0,0,1,.33.55,5,5,0,0,0,1.44.25c-.46.06-.87-.09-1.33,0a.16.16,0,0,0,0,.07.33.33,0,0,0,.28.1c0-.05-.08-.11,0-.15.72.27,1.56-.1,2.21-.14A5.78,5.78,0,0,0,39,32.34C39,32.49,39.23,32.36,39.12,32.48Z"/><path class="cls-2" d="M48.65,20c0,.19.05.37.07.56l.26,0a2.29,2.29,0,0,1,.09-.44L49,20Z"/><path class="cls-2" d="M41,32.75c0-.13-.14-.11-.2-.29-.15.12-.43-.07-.47.08C40.59,32.49,40.75,32.81,41,32.75Z"/><path class="cls-2" d="M36.87,30.72a5.37,5.37,0,0,0,1.17,1c-.23-.32-.44-.63-.64-.94A3.11,3.11,0,0,1,36.87,30.72Z"/><path class="cls-2" d="M36.49,30.64a.67.67,0,0,0,.16.18c0-.05,0-.09,0-.13Z"/><path class="cls-2" d="M34.67,41.7l.3-.05a3.16,3.16,0,0,0-.43-.16C34.41,41.53,34.55,41.62,34.67,41.7Z"/><path class="cls-2" d="M39.43,41.9c-1.08-.64-2.58-.38-4-.24l-.12.16-.26-.12-.36,0,.06,0a2.37,2.37,0,0,1-.45,0s.09,0,.15.06C36.07,42,37.8,41.75,39.43,41.9Z"/><path class="cls-2" d="M32.73,41.2c0,.1,0,.19,0,.28l.84.28.53,0c-.11,0-.2-.09-.2-.17-.61.11-.7-.28-1.1-.35Z"/><path class="cls-2" d="M44.68,22.46a1.16,1.16,0,0,0,.48-.34.25.25,0,0,1,0-.07C44.92,22.16,44.73,22.27,44.68,22.46Z"/><path class="cls-2" d="M39.18,26.58l.18-.14,0,0A2.09,2.09,0,0,0,39.18,26.58Z"/><path class="cls-2" d="M44,23a.92.92,0,0,0,.29-.3l-.34.21Z"/><path class="cls-2" d="M48.44,18.91l-.07.06a.85.85,0,0,1,.25.2.76.76,0,0,1,.09-.09A.72.72,0,0,0,48.44,18.91Z"/><path class="cls-2" d="M50.54,19.1c-.13.16.1.18.08.45-.06,0-.16,0-.15.11C50.73,19.88,50.76,19.17,50.54,19.1Z"/><path class="cls-2" d="M50.79,19.53c.28-.05.19-.33.15-.57l-.15.05A2.26,2.26,0,0,1,50.79,19.53Z"/><path class="cls-2" d="M48.85,19l.13-.12v-.06l0,0a7.22,7.22,0,0,1,.6-.5l-.93.46Z"/><path class="cls-2" d="M67.45,15.6h-.11s0,0,0,0a1.08,1.08,0,0,1-.08.54c-.07.19-.11.35.07.4a1.63,1.63,0,0,1,.09-.37c.06-.2.12-.42,0-.55Z"/><path class="cls-2" d="M45.34,21.82a.1.1,0,0,0,0,0c.28-.09.55-.49.77-.69C45.75,21.29,45.62,21.61,45.34,21.82Z"/><path class="cls-2" d="M37.76,42.13c.14-.15.52,0,.78-.11-.11-.23-.33,0-.5,0-.22-.16-.52,0-.77-.07.07.19.35-.07.3.16a20.19,20.19,0,0,0-2.92-.08c.1,0,.18.09.2.16s.16-.1.26-.12a6,6,0,0,1-2.68,2.19c0,.08,0,.16,0,.23a5.45,5.45,0,0,1,1,.3,3.31,3.31,0,0,1-.75.43,1.36,1.36,0,0,1,.58,0l.47,0a1.13,1.13,0,0,1,.34-.1l.12.08a13.65,13.65,0,0,0,1.78-.12c0-.15.28-.22.07-.47.21-.08.08.2.22.33.56-.09,1.23-.88,1.77-1.45a1.78,1.78,0,0,0,.56-1.39A6.94,6.94,0,0,1,37.76,42.13ZM33.64,45l0-.07.09.05Z"/><path class="cls-2" d="M34.72,42a3.59,3.59,0,0,0-.75-.1h0c.16.05.35.08.51.12S34.68,42,34.72,42Z"/><path class="cls-2" d="M38.07,44.61c0,.29-.18.69,0,.89A1.28,1.28,0,0,0,38.07,44.61Z"/><path class="cls-2" d="M37.79,45.34a9.24,9.24,0,0,0-1.16-.16C37,45.28,37.51,45.47,37.79,45.34Z"/><path class="cls-2" d="M37.29,44.42s-.09.07-.06.11c.25-.05.44.13.68.13C37.87,44.48,37.51,44.41,37.29,44.42Z"/><path class="cls-2" d="M37,44.83a4.42,4.42,0,0,1,.73.1c-.17-.17-.59-.13-.65-.27.25-.14.56.25.7.06a3.12,3.12,0,0,1-.59-.19C37.1,44.62,37,44.71,37,44.83Z"/><path class="cls-2" d="M38.13,44.21c-.11,0-.37,0-.28-.22-.11.08-.09.17-.23.15.17.18.55.06.47.4C38.24,44.45,38.1,44.32,38.13,44.21Z"/><path class="cls-2" d="M37.87,45.28A2.58,2.58,0,0,0,36.78,45C37.11,45.26,37.51,45.17,37.87,45.28Z"/><path class="cls-2" d="M38.12,43.44c0,.08-.1.16-.16.23s.09.25.18.18C38,43.71,38.29,43.46,38.12,43.44Z"/><path class="cls-2" d="M37.88,45.1c-.3-.24-.69-.15-1-.26C37,45.07,37.57,45,37.88,45.1Z"/><path class="cls-2" d="M38.46,44.11c-.05-.32,0-.63,0-1C38.25,43.43,37.93,44.18,38.46,44.11Z"/><path class="cls-2" d="M38.72,45.36c-.06.07-.26,0-.16-.13a5,5,0,0,0,1.48.24c-.49-.4-1-.72-1.49-1.12a4.15,4.15,0,0,0-.16,1.12C38.47,45.47,38.73,45.53,38.72,45.36Z"/><path class="cls-2" d="M87.49,43.29c.36,0,.84,0,1-.22C88.22,43.09,87.74,43,87.49,43.29Z"/><polygon class="cls-2" points="41.21 22.03 40.21 21.06 39.23 22.05 38.58 21.42 39.73 20.24 38.66 19.19 36.32 21.57 40.79 25.95 41.97 24.73 40.24 23.03 41.21 22.03"/><path class="cls-2" d="M52.59,10.77,51,11.41l1.51,3.7c.23.54.15.88-.22,1s-.65,0-.87-.58l-1.52-3.7-1.57.64,1.49,3.64a2.88,2.88,0,0,0,.76,1.12,2,2,0,0,0,1,.5,2.55,2.55,0,0,0,1.25-.19,2.36,2.36,0,0,0,1-.74,2,2,0,0,0,.41-1.08,3,3,0,0,0-.24-1.35Z"/><polygon class="cls-2" points="67.29 8.91 66.18 11.46 66.15 11.46 66.27 8.86 64.58 8.77 64.27 15.02 65.97 15.1 66.09 12.56 66.15 12.56 67.1 15.15 69.01 15.25 67.68 12.02 69.15 8.99 67.29 8.91"/><path class="cls-2" d="M83.56,13.6l-1.88,3.53c-.28.52-.59.68-.94.49s-.38-.53-.11-1L82.51,13,81,12.25l-1.85,3.47a3,3,0,0,0-.38,1.3,2,2,0,0,0,.3,1.12A2.35,2.35,0,0,0,80,19a2.42,2.42,0,0,0,1.21.31,2,2,0,0,0,1.1-.38,3,3,0,0,0,.87-1l1.85-3.47Z"/><rect class="cls-2" x="88.72" y="23.49" width="6.25" height="1.69" transform="translate(6.07 65.22) rotate(-40.32)"/><path class="cls-2" d="M127.73,68s3.63-3.49.87-9.72c0,0-3.63-6.63-11-4.83,0,0,.33-.87.37-1a2.23,2.23,0,0,0-.32-1.83l-1.11-1.7a2.26,2.26,0,0,0-1.69-.78l-3.35,0-3.16-3.9c0-.48-.07-1-.12-1.44L111,37.85l-4.45-3.45c-.15-.48-.3-.95-.46-1.42l1.59-5.39-5.11-2.34c-.25-.43-.51-.85-.77-1.27l.33-5.62-5.55-1.13q-.48-.53-1-1l-1-5.57L89,10.79,87.74,10,85.53,4.81,80.1,6.25l-1.4-.5L75.39,1.21l-5,2.64L69,3.69,64.67,0,60.41,3.71,59,3.88l-5-2.6L50.68,5.84c-.47.16-.94.33-1.4.51L43.83,5l-2.16,5.19L40.42,11l-5.63-.13-.94,5.58-1,1-5.54,1.17.36,5.64c-.26.41-.5.83-.75,1.25l-5.1,2.39,1.62,5.38c-.16.47-.3.94-.45,1.43l-4.42,3.46L21.4,43c0,.48-.07,1-.1,1.44l-3.54,4.41L18.83,50c-.94.47-1.85,1-2.74,1.49A42.38,42.38,0,0,0,4.88,61.22C2,64.84,0,68.79,0,72.94v0a10.17,10.17,0,0,0,2.58,6.88,16.3,16.3,0,0,0,6.13,3.85L1.52,106.48a3.52,3.52,0,0,0,.87,2.32,3.38,3.38,0,0,0,2.5,1.2s6.89-.14,12.75-7.59a27.75,27.75,0,0,0,4.26-9.2A41,41,0,0,0,27.84,102c4.08,4.89,10,7,16.22,7h.09C56.22,109,70.37,102,84.35,91.79a31.62,31.62,0,0,1,19-6.43s8.45.11,13.76,3l1.72.45a3.52,3.52,0,0,0,2.9-1.51,4,4,0,0,0,.06-3.91,12.13,12.13,0,0,0,7.87-10.79A7.27,7.27,0,0,0,127.73,68Zm-27.37-43.1a13.42,13.42,0,0,0-2,.81c.56-.12,1.34-.44,2.11-.69.55.79,1,1.42,1.11,1.67a4,4,0,0,1-.17,2.79c-2.95.92-5.9,2.14-8.89,3a3.89,3.89,0,0,0-2.11-2,4,4,0,0,1,1.34.7c0-.36-.77-.63-1.18-.81.82-.27.89-1.12,1.89-1.45,0,.09,0,.22.12.22.66-1.82,3.78-2.1,5.54-3.23-1.36.29-2.57,1.35-3.73,1.31.52-.24.94-.9,1.59-.76a2.27,2.27,0,0,1,.64-.75c1.35.17,2.24-.72,3.53-1.09ZM92.77,37.27l-.42.11a5.69,5.69,0,0,1,.35-1l.15.44C92.45,36.34,92.88,37.06,92.77,37.27Zm-.24-3.18c-.14-.39-.53-.71-.14-.77-.11,0-.07-.07,0-.15-.16,0-.18-.07-.28-.11,0,.14.16.18,0,.24s-.28-.1-.41.07c-.33-.9-.94-1.92-1.18-2.62,1.35.52,2,2.08,2.28,3.79l-.49.09-.07-.18C92.69,34.4,92.18,33.9,92.53,34.09Zm-3,4c.1.09.08,0,.24-.05.07.12.15.22.22.33a5.08,5.08,0,0,0-1.2.64c-.44.2-1,.12-1.3.8,0-.22-.07-.44-.11-.65l.15-.07a6.9,6.9,0,0,1,1.81-.81C89.37,38.22,89.58,38.17,89.51,38.09ZM90,33.3c-.32-.53-.73-1.18-1.14-1.81h0c0-.17.08-.34.13-.53v0l.45-.12a5.25,5.25,0,0,1,.87-.14c.63,1.28,1.23,2.58,1.79,4a4.09,4.09,0,0,1-.86,0,.81.81,0,0,1-.64-.34C90.47,34.14,90.25,33.76,90,33.3Zm-.52-3.76c.25.22.34.63.59.84a1,1,0,0,1-.74.29l-.29,0a8.76,8.76,0,0,0,.15-1.55l.14,0a.46.46,0,0,1-.14.23,1.27,1.27,0,0,0,0,.2A.92.92,0,0,1,89.44,29.54Zm.5-1c.67-.18,1.12-.09,1.77-.25.28.07-.1.48.24.35-.41.32-1.87.23-2.19.33.37-.42,1.3-.2,1.92-.35C91.3,28.3,90.25,28.9,89.94,28.5ZM91.22,28c.25,0,.2-.14.4-.15,0,.13,0,.26.07.38-.21.05-.11,0-.11-.13C91.35,28.21,91.36,28.28,91.22,28Zm1,.76c-.29-.12-.2-.74-.44-.94C92,27.53,92.29,28.37,92.23,28.71Zm0-1.17a11.36,11.36,0,0,1,2.2-.72,7,7,0,0,1-1.95,1.62C92.47,28,92.12,27.71,92.18,27.54Zm-2.39,1.54c.36,0,0,.23,0,.4.43-.49,1.09-.46,2-.6a9.54,9.54,0,0,1-1.61,1.56C90,29.9,89.38,29.53,89.79,29.08Zm3,4.34c0-.18-.14-.13-.17-.44C93,33.42,93,34.5,92.75,33.42Zm.07-.57a3.12,3.12,0,0,1,1.42-.26c-.3-.43-1.24.19-1.63.07.78-.55,2-.13,2.71-.74.57-.08.17-.18-.18-.06s-.81.44-1.15.3c1.56-.48,3.15-1.26,4.54-1.63-.07,0-.17,0-.18,0a11.69,11.69,0,0,0,3-.82,4.15,4.15,0,0,1-2,2.29l-4,1.79a15.69,15.69,0,0,1-2.08.72C93,33.94,92.89,33.37,92.82,32.85ZM97,20.24l.19.24a23.86,23.86,0,0,1-.54,4.43,11.32,11.32,0,0,0,.62-4.32c.93,1.2,2,2.62,2.77,3.79-.75.16-1.36.38-2.25.63.65.09.92-.23,1.59-.29a8.29,8.29,0,0,1-2.76.9,2.74,2.74,0,0,0,.65-.67c.06.13.86-.22.54-.33-.71.3-1.06.82-1.78,1.11a7.56,7.56,0,0,0,.35-2.34C97,22.7,96.35,20.86,97,20.24Zm-.87-.5c1.11.24.11,1.52.27,2.39.11-.13,0-.4.16-.51a6.66,6.66,0,0,1-.12,1.67c-.22,0,.06-.3-.1-.53l0,.25,0,0,0,0a16.21,16.21,0,0,1-.5,2.87c-.23-.12-.47.16-.74.22,0,.1.23,0,.35,0s-.44.2-.75.14c.05.16-.18.1-.19.36-1.64.16-2.92,1.29-4.78,1.74-.19,0,.07.2.2.12,0,.24-.4.21-.65.27l-.08-.14a6.85,6.85,0,0,0-.81-2.75h0s0-.07,0-.1l0,.1.21-.15-.07-.42a2.92,2.92,0,0,1-.28.32h0a3.16,3.16,0,0,0-.35-.49l.93-.7c0-.14-.31.06-.31.14,0-.39.94-.76,1.14-1.24.21.33-.53.66-.77.93.11.21.09-.2.31-.14-.07.14-.14.3-.22.45l.42-.37c.32-.62,1-1.13,1.31-1.77a23.54,23.54,0,0,0,.94-2.38c.35-.17.42-.24.75-.14,0-.13-.09-.13-.19-.12.82-.06,2.6-.22,4.09-.29C96.29,19.68,96.2,19.7,96.1,19.74Zm-.69-1.35c.21.21.46.49.73.82l-.35.27c-.86-.18-2.73.2-3.87.08.09-.3.46-.79.33-1a31,31,0,0,1-2.07,4.24c.86-2.05,1.67-3.78,2.45-5.51A3.66,3.66,0,0,1,95.41,18.39ZM81,8.63l0,.06a.44.44,0,0,0,0-.1Zm.06.66.24-.5.34.18a9.23,9.23,0,0,1-.91.85C80.51,9.73,80.86,9.17,81,9.29ZM49.19,8.56a.39.39,0,0,0,0,.32c-.28.18-.1-.25-.3-.18C48.88,8.6,49.07,8.6,49.19,8.56Zm-25.36,31c.43.37.44,1.44.46,2.49A4,4,0,0,1,23.83,39.55Zm1.05,5.3a.46.46,0,0,1-.2,0,2.23,2.23,0,0,1,.3-.2c0,.16,0,.31,0,.48a1.43,1.43,0,0,1-1.13.52,5.59,5.59,0,0,1,.45-.52c0,.1,0,.19,0,.29C24.59,45.3,24.89,45.17,24.88,44.85Zm-.43-4.65c.15,1,.24,1.74.33,2.51-.1-.11-.19-.23-.28-.35C24.46,41.65,24.42,40.92,24.45,40.2ZM33,45.87a2.82,2.82,0,0,1,1.58-.33l.26.23.66,0C34.67,45.75,33.83,45.79,33,45.87ZM42,42a1.19,1.19,0,0,1,.08.2s0,0,0,0a1.91,1.91,0,0,1-.59-.08A2.34,2.34,0,0,1,42,42S42,42,42,42ZM59.42,15.67a5.32,5.32,0,0,1-.64,2.19,12.4,12.4,0,0,0-1.64.7,12.11,12.11,0,0,0-2.21.25,5.7,5.7,0,0,0-.67-1,6.64,6.64,0,0,0,.52,1.07,16.51,16.51,0,0,0-3.57,1.21l.06,0c0-.37,0-.77,0-1.19l-.3.11a4.27,4.27,0,0,1,.26,1.11l-.52.26c0-.26.09-.51.12-.73-.06.29-.19.22-.38.31,0,.12,0,.3.14.29-.33-.07-.91-.11-1.48-.17a5.47,5.47,0,0,0,0,.57q.4.07.78.18A17.62,17.62,0,0,0,48,22.11h0a11.11,11.11,0,0,1-1.25-1.29c.27-.11.56-.15.74-.44l1.06.15a4.86,4.86,0,0,0-.11-.55l-.52-.06c.13-.14.25-.28.38-.41s0-.11-.07-.16c-.23.52-1.11.91-1.59,1.35-.13-.16-.26-.32-.38-.49l-.1.06a5,5,0,0,1,.29.62.54.54,0,0,0-.11.26.84.84,0,0,1,.15-.18,5.32,5.32,0,0,1,.3,2.23,18.3,18.3,0,0,0-3,3.87h0a6,6,0,0,1-.34-1.76l-.07.27-.48.27c.17.23.3.56.46.73-.35-.16-.41-.46-.56-.68l-.24.13a6.74,6.74,0,0,1,1,1.51l0,0c-.09,0-.2,0-.19.11l.1.06a0,0,0,0,0,0,0c0,.06,0,.1-.07.16h0c-.26.18-.53.38-.82.57-.21,0-.41,0-.62,0,.26-.11.62-.15.61-.43-.26.12-.16.1-.35,0-.33.46-.79.49-1.4.82a8,8,0,0,1,.24-2l-.16.07a6.74,6.74,0,0,0-.28,1.84,19.63,19.63,0,0,1-2-1.37l-.26.37a19.24,19.24,0,0,1,2,2.05,8.42,8.42,0,0,1-2.78.95,6.51,6.51,0,0,0,.43.6,3.22,3.22,0,0,0,2.66,1.11c.09,0,.06-.09,0-.14a2.65,2.65,0,0,1,.87.55s0,.06,0,.08-.15-.11-.22-.18l.19.32a0,0,0,0,0,0,0,2,2,0,0,0-.05.26l-.08-.07.07.11h0a.78.78,0,0,0,0,.16L41,32.94a8.83,8.83,0,0,0-1.68.13s-.08,0,0,.07c.72,0,1.37.35,2.08.4,0,0,0,.08,0,.12-.32-.12-.81-.12-1.19-.22a5.41,5.41,0,0,0-1.88-.35,5.38,5.38,0,0,1,.3,1,5.42,5.42,0,0,1-1.07-.82c-.15-.16-.41-.38-.42-.39-.16-.41-.87-.49-1.56-.64a1.42,1.42,0,0,0-.08.18,3.23,3.23,0,0,1,1.67.61c.34.28.28.62.66,1.21a2.08,2.08,0,0,0,.86.72,4.38,4.38,0,0,1-.35,1.67A25.14,25.14,0,0,1,37,39.19c-1.29-.15-2.56-.33-3.8-.49,0,.1-.05.19-.07.29a2.4,2.4,0,0,0,.24,0c.31,0,.68-.13,1-.11a19.62,19.62,0,0,1,2.53.43,25.43,25.43,0,0,1-1.44,2.22,7.79,7.79,0,0,1,4.11.2l.18-.12a5.66,5.66,0,0,0,2.14.2l0,0c-.31,0-.62.06-.94.11a2.5,2.5,0,0,0,1,.18l.06.14,0,.06a8,8,0,0,0-2.71-.29c.05,0,.1,0,.14,0-.14.13-.2-.07-.35.06.35.86.47,1.94.84,2.77.09.18.32.21.16.42a15.63,15.63,0,0,1-1.07-3.2.16.16,0,0,1-.15,0,3,3,0,0,0-.42,2.08c.12.22.48.34.77.55s.49.51.76.62a2.88,2.88,0,0,0,1.46,0v.12h0a7.7,7.7,0,0,0-.83,0s0,.08,0,.11A3.66,3.66,0,0,0,39,45.54c.1,0,.26.05.2.12a1.64,1.64,0,0,0-.91-.1,1.09,1.09,0,0,1,0,.36h-.09a7,7,0,0,0,.07-1.71,4,4,0,0,0-.07,1.71l-.18,0h.06a.93.93,0,0,0,0-.4c-.18.09,0,.22-.18.31,0-.21-.09-.26-.29-.23a3.73,3.73,0,0,1,.25.29h-.09c-.31-.44-.71-.31-1.16-.49l-.12.4h-.12l.09-.42c0-.14-.13-.07-.18-.18a17.74,17.74,0,0,1-2.06.12l.12.08a3.14,3.14,0,0,0-1,.12.72.72,0,0,1,.21-.18c-.37,0-.74,0-1.09.06a.1.1,0,0,1,0-.07l-.13,0a.34.34,0,0,1,0,.1c.16,0,.35-.13.3.1l-.3,0c0,.12,0,.24,0,.36a38.63,38.63,0,0,0-9.24,2.22,5.22,5.22,0,0,1,.38-1.9,7.65,7.65,0,0,1,.89-.06c.94,0,1.87.15,2.45.17.86,0,1.67,0,2.46,0l.18,0c0-.08,0-.16,0-.24a2,2,0,0,0-.78.06,7.65,7.65,0,0,1,.78-.16c0-.1,0-.2,0-.3a29.73,29.73,0,0,0-4.62-.09.2.2,0,0,1,.31-.22c0-.26-.08-.53-.1-.84a4,4,0,0,1,2.29-.48l2.23.17a.28.28,0,0,1,0-.09L27.42,44A4,4,0,0,1,25,42.93a8.87,8.87,0,0,0-.74-3.32c.59.27,1.33.33,1.72.87,1.24,0,2.45.28,3.17.35.32,0,.69,0,1,.07,0-.1.05-.2.07-.3a2.23,2.23,0,0,0-.55,0c.07-.12.06-.2-.13-.21-.92,0-1.73-1-3-.86.16-.21-.74-.06-.68-.42-.68.21-1.27-.14-1.71.08,0-.29-.06-.19-.23-.13l1.14-3.66h0a8.27,8.27,0,0,0,3.26,1.75c0,.48.58.72.19,1.06a3.59,3.59,0,0,1,1.95,1.29l.07-.25a.79.79,0,0,0-.28-.1c.15-.21-.17-.34-.27-.5a1.48,1.48,0,0,1,.72,0c0-.07,0-.14.06-.22l-.92-.09a18.43,18.43,0,0,1-1.44-1.7,33.49,33.49,0,0,0-3.26-1.29c0-.36.23-.53.47-.71-.36-.88.45-1,.37-1.72-.11.09-.07.26-.09.41a3.85,3.85,0,0,1-.08-.49l.81-2.58A4,4,0,0,1,28,28.56c1.55,1.3,3.09,2.35,4.57,3.77a1.57,1.57,0,0,1,.82-.14l.19-.32a43.3,43.3,0,0,1-5.34-3.48,3.91,3.91,0,0,1,4,0l1.46.84c.13.5.37,1.06.49,1.56l.1-.17a6.79,6.79,0,0,0-.5-1.34l1,.56,0-.07-1.12-.64L33.67,29a.36.36,0,0,1,0,.11l-1.38-.8a3.9,3.9,0,0,1-1.24-5.79l.22-.23a7.39,7.39,0,0,0,1.15,3.31c-.26-.74-.46-1.54-.76-2.22.71.14.81,1.08,1.52,1.21-.37-.46-.8-1.61-1.35-1.24a4.18,4.18,0,0,1-.39-1.24l2.63-2.84,0,0c.36,1.25.89,2.8,1.31,4.32.34,1.23,1.35,2.09,1.54,3.18l.09.06.42-.48A3.92,3.92,0,0,1,36.82,25a12.07,12.07,0,0,0-.57-1.53l-.92-1,.23-.5a13.66,13.66,0,0,1-1.18-3L37,16.14c.12.17.2.34.31.05a.48.48,0,0,1-.22-.15l.46-.5a3.88,3.88,0,0,1,5.86.72l2.39,3.43.07,0L43.48,16.2c-1.39-2-1.66-4.23-1.32-4.44s2.4-1.27,4.59-2.34l2-.75a1.61,1.61,0,0,0,.5.91c.07.5.16,1,.24,1.4l.27-.19a19.54,19.54,0,0,1-.25-2.41L53.6,6.8a4,4,0,0,1,5,3.23l.74,4.37a5.6,5.6,0,0,1,.07,1.08A1.28,1.28,0,0,0,59.42,15.67ZM41.14,29.3a.51.51,0,0,0-.24-.16c.27-.05.55-.11.83-.19Zm-.31-.07c.06.05.11.11.16.16l-.45.24a1.4,1.4,0,0,1-.1-.16C40.6,29.4,40.55,29.22,40.83,29.23Zm-.42.08c-.79-.25-1.08-1.16-1.83-1.48a5.28,5.28,0,0,1,2,1.3C40.48,29.17,40.41,29.22,40.41,29.31ZM25.51,39.85c.4-.17,1.07.17,1.62.33C26.55,40.51,26,40,25.51,39.85Zm1.75.15c.32-.2.86.14,1.11.35C27.94,40.31,27.7,40,27.26,40ZM36,23.9c.29,0,.3.37.38.64C36.21,24.44,36.14,24.15,36,23.9ZM72.88,17a4.59,4.59,0,0,1-.53.55,4.78,4.78,0,0,1-1.26.84,8.29,8.29,0,0,0-1.92-.14,6.33,6.33,0,0,0-1.93-1.07h0a2.35,2.35,0,0,0-.09-.6,5.09,5.09,0,0,1,0,.55,5,5,0,0,0-3.71.19l-.3,0h0a15,15,0,0,1-1.51-.68V16c0,.19-.08.38-.11.58a7,7,0,0,1-1.29-.9l-.2-.2a2.07,2.07,0,0,1-.58-1L58.71,10a3.88,3.88,0,0,1,3.7-4.61l5.75.3c-.52.58-.45.92-.4,1.86,0,.17,0,.35,0,.52l.27,0V7.76c0-.47-.25-.93,0-1.42a4.18,4.18,0,0,1,.42-.61l3.4.18a3.9,3.9,0,0,1,3.17,5l-1.2,4.27A4.8,4.8,0,0,1,72.88,17ZM77,20.37l-.07-.08c.06-.13.09-.26.17-.19Zm4.57,3.24A4.15,4.15,0,0,1,80.2,23l-.29-.21c.59.13,1.09.68,1.69.79Zm.85-.12c-.62.31-1.25-.26-1.69-.6a13.08,13.08,0,0,0,1.54.47,2.3,2.3,0,0,0,.28.06Zm1-.24A5.38,5.38,0,0,1,82,23.19a19.59,19.59,0,0,1-2.66-.78.13.13,0,0,0-.06-.05,3.09,3.09,0,0,1,1.65,0,14.73,14.73,0,0,1,2.34.88l.13.05Zm.18.15Zm.36,0a1.43,1.43,0,0,1,.38-.68,2.94,2.94,0,0,0,.35.71h0A4.37,4.37,0,0,0,83.91,23.38Zm.34-.91c.29-.35,1-.47,1.22-.85-.41.1-.9.51-1.11.52a7.64,7.64,0,0,0-.63-2.42l-.1.11A3.57,3.57,0,0,1,84,22.52c-.09-.14-.64,0-.57.18.23,0,.35-.3.5-.09s-.09.43-.33.53a6,6,0,0,1-.59-.23,12.35,12.35,0,0,0-2.29-.79,6.27,6.27,0,0,0-.79-.11,4,4,0,0,0,.34-.23,2.94,2.94,0,0,0,.57-.6A9.13,9.13,0,0,0,81.55,20h0c-.26.38-.52.76-.8,1.12a7.88,7.88,0,0,1-.55.62,4.63,4.63,0,0,1-.83.66c-.65-.51-1.44-1.15-2.2-1.86,0-.12.1-.24.14-.36a1.14,1.14,0,0,1-.11-.37,3,3,0,0,1,.09-.87,5.74,5.74,0,0,0,.35-2.12c-.17.68-.31,1.38-.48,2.06l-.12.5-.09.29a.47.47,0,0,0,.1.05c-.16.29-.31.62-.46,1l-.19-.11.26-.51c-.36-.35-.7-.72-1-1.08s-.56-.67-.79-1l.21-.12.94-.5a1.73,1.73,0,0,1-.55.68c-.12.1-.23.18-.31.26a.68.68,0,0,0,.48-.19,3.8,3.8,0,0,0,.43-.52c.65-.82,1.38-1.75,2-2.64l.2-.92c-.4.67-1.38,1.74-1.33,2.14-.41.13-.48.6-.8.85A9.52,9.52,0,0,1,75,17.5c-.09.05-.18.12-.27.18l0,0,0-.05a3.16,3.16,0,0,1-.69-2.44l1.21-4.27a3.9,3.9,0,0,1,5-2.72,2.26,2.26,0,0,1,.25.66c.22-.17-.21-.37,0-.48.13.18.55.47.39.72-.22.06,0-.45-.31-.26.4.85-.56,1.32-.62,2.24a16.6,16.6,0,0,0-1.07,1.69c-.22.39-.34.83-.55,1.21l1-1.3a5.41,5.41,0,0,1,.62-1.28c.38-.53.87-1.12,1.33-1.66.16-.18.46-.26.62-.43a1.53,1.53,0,0,0,.14-.21l5.41,2.94c-.68.45-1.42.91-2.12,1.42l.14.07a15.42,15.42,0,0,0,2.1-1.42l1.36.74a3.88,3.88,0,0,1,.75,5.86l-2.91,3.34a4.75,4.75,0,0,1-1,.88,10.32,10.32,0,0,0,0-1.43A3.69,3.69,0,0,0,85.46,23c-.21.12-.43.23-.65.33A3.7,3.7,0,0,1,84.25,22.47Zm1.18,1.06v0l.08,0,0-.18,1.13-1.29,2.92-3.33a4.31,4.31,0,0,1,2.79-1.49c-.45,1-.92,2-1.36,3-.2.42-.21.86-.38,1.25a9,9,0,0,1-3,3.44h0a4.75,4.75,0,0,0-2.25-1.42Zm4.87,24.2A2.4,2.4,0,0,0,90,47c0,.09.09.19,0,.26-.23-.38.21-.68-.23-1.1.1-.17.21-.33.09-.53a21,21,0,0,1-2.23.09,5.6,5.6,0,0,0-.81-.41c.06-.14.11-.29.16-.44a1.13,1.13,0,0,0,.18,0c-.13.3.29.28.39.57a5.31,5.31,0,0,1,2.36.18c.08,0,.06-.08,0-.14.14-.08.24.06.36.06,0,.19-.1,0-.22.15a.78.78,0,0,1,0,.59c.24.16.13.69.37.93a.78.78,0,0,0,.07.57Zm.4-4.54c-.38,0-.75.08-1-.07-.12.09-.09.19-.19,0-.2.24-.64.19-1,.49-.06-.23-.54.09-.51-.07a1.56,1.56,0,0,1-.71.2h0c0-.07,0-.16,0-.23a.23.23,0,0,0,.12-.09.22.22,0,0,1-.11,0v0c0-.14.06-.28.08-.43.22-.07.45-.15.67-.24.36.21.81.06,1.22.06a9.19,9.19,0,0,1-1.79-2.67h0c0-.09,0-.19,0-.29.6,1.09.92,1.64,1.57,2.67-.36-.92-.91-1.76-1.26-2.61,0-.1-.12,0-.19,0-.09-.18.06-.34.19-.49A5.9,5.9,0,0,0,88.44,41c.4.74.75,1.77,1.23,1.79,1,0,2.21.12,3.31.16l.06.44A17.52,17.52,0,0,1,90.7,43.19ZM93.29,48H93.2c0-.53.07-1.05.08-1.58,0,.37,0,.73,0,1.1C93.31,47.68,93.3,47.84,93.29,48Zm.17-5.57c-.2-.46-.38-.91-.54-1.32s-.38-1.06-.5-1.45a4.22,4.22,0,0,1-.16-1.73c0-.14,0-.27.06-.4l.48-.11C93,39.35,93.59,41,93.46,42.43Zm.1.22c.23-1.38-.43-3.43-.57-5.11.71.81,1.75,2.24,1.43,3.52l-.42.07a2.79,2.79,0,0,1-.34,1.75C93.63,42.8,93.59,42.72,93.56,42.65Zm.39.85c-.09-.19-.18-.4-.28-.59.35-.15.27-.57.42-.85.22.3.07.95.07,1.33.43-.5.09-1.47.2-2.16a40.2,40.2,0,0,1,6.15-.83c.37.83,1.28,1.75.26,2.32a16.59,16.59,0,0,1-2,.29,16.43,16.43,0,0,1-4,.58,4.38,4.38,0,0,0-.09-2.35,19.39,19.39,0,0,1,0,2.29A1.46,1.46,0,0,1,94,43.5Zm7.41-1.37c.16,0,.23.21.25.43-.32,0-.26,0-.5.09C101,42.25,101.53,42.61,101.36,42.13Zm-6.73,2a3.49,3.49,0,0,0,.07.82c-.13-.22-.26-.46-.39-.71C94.42,44.22,94.47,44.12,94.63,44.09Zm1.49,2.82a11.33,11.33,0,0,1-1.33-1.84c.09-.31-.1-.8,0-1.09,1.86-.26,4.17-.9,5.59-1-.33,1-.72,1.94-1.14,2.88h0A8.47,8.47,0,0,0,96.12,46.91Zm8,.87-.19.07c.05-.3,0-.67.29-.82C104.14,47.24,104.21,47.55,104.15,47.78Zm.12-.05a13.29,13.29,0,0,0,0-2.2,14.63,14.63,0,0,0-.49,1.95h0a2.2,2.2,0,0,0-2-1.67,9,9,0,0,0-2.48,0c.44-1,.85-1.95,1.24-2.9a16.36,16.36,0,0,1,3.91-.32,2.23,2.23,0,0,1,0-.23c-.11,0-.1.12-.24.12s.13-.1.14-.18c-.88-.18-2.35.58-2.45-.18,0,.19,0,.42-.17.5-.79-1.59-1.44-3.34-2.63-4.38,1.23-.77,2.77-1.86,4.06-2.81,0-.05,0-.1,0-.14A46.68,46.68,0,0,1,99,38c-1.81-.13-3.77-.66-5.7-.92.61.52,1.8.28,2.54.64a21.83,21.83,0,0,1-2.36-.12c1.45.52,3.79-.14,5,.74a13.77,13.77,0,0,0-3.57,1.75c1.6-.5,2.53-1.41,4.08-1.77.53.64,1.23,1,1.5,2-2,0-3.93.41-5.94.62,1.54-.61,4.14-.55,5.64-.81-1.59-.12-4.08.48-5.52.48.15-.3-.19-.65-.08-.86.3-.11.38.07.69-.05,0-.3-.48,0-.7,0C94,39,93.66,37.89,93,37.23A3.61,3.61,0,0,0,92.86,36a1.59,1.59,0,0,1,.13-.22c0,.2,0,.41.05.62a1.78,1.78,0,0,0,.2-1,5.07,5.07,0,0,1,2-1.61l4.06-1.77a3.88,3.88,0,0,1,5.37,2.45l1.84,9.31A3.91,3.91,0,0,1,104.27,47.73Z"/><polygon class="cls-2" points="43.35 27.86 43.35 27.86 43.34 27.87 43.35 27.86"/><polygon class="cls-2" points="41.38 33.49 41.38 33.49 41.38 33.51 41.38 33.49"/><path class="cls-2" d="M88.32,25.9h0s0-.07,0-.1S88.3,25.87,88.32,25.9Z"/><path class="cls-2" d="M43.53,27.52c.08-.16.17-.31.26-.46h0c-.09.15-.18.3-.26.46Z"/><path class="cls-3" d="M124.91,67.78s2.6-.68,3.06-4.54c0,0,.77-5.5-5.31-7.7,0,0-5.14-2.52-9.46,4.18,0,0-.35-.44-1.61-.5l-7.78-.09a1.74,1.74,0,0,0-1.4-.73,1.78,1.78,0,0,0-1.65,1.17l-.87,2.21a6.16,6.16,0,0,0-7.65-2.35,12.92,12.92,0,0,0-3.7,2.2s.08-1.45-1.13-1.69a1.89,1.89,0,0,0-1.93.65l-.63.13.33-1.12a5.31,5.31,0,0,0,.21-1.46,4.45,4.45,0,0,0-.93-2.79,8,8,0,0,0-.88-.9,15.88,15.88,0,0,0,.52-6.92,10.56,10.56,0,0,0,1.62-9.44s.93-1.06.23-3.75c0,0,3.18-4.61,1.21-7.76,0,0-1.13-2.66-5-1,0,0-1.28.54-3.1-1.18s-5.66-4.55-10.11-4.54c0,0-2.79-2.28-4.78-.76a9.1,9.1,0,0,0-6.27,1.08S48.8,20.48,45,28.94s-.85,13.27-.85,13.27A11.81,11.81,0,0,0,44.29,50a15,15,0,0,0-8.5-2.23,37.85,37.85,0,0,0-18.37,5.5A40.49,40.49,0,0,0,6.74,62.45C4,65.87,2.31,69.47,2.29,73a8.23,8.23,0,0,0,2.07,5.59,15.53,15.53,0,0,0,7.16,3.88L3.88,106a1.53,1.53,0,0,0,.31,1.49,1.31,1.31,0,0,0,1.15.52c10.78-1.74,13.94-12.26,13.94-12.26l2.33-7.08c.36-.09.74-.21,1.12-.32.39,2.91,2.24,6.8,6.92,12.38,3.69,4.39,8.94,6.35,14.79,6.32,11.3,0,25.25-6.8,39-16.86a33.6,33.6,0,0,1,20.22-6.81s9.53.48,14.65,3.26l0,0a1.54,1.54,0,0,0,1.74-2.52,25.49,25.49,0,0,0-2.24-1.74s9.34-.62,10.07-9.59C128,72.81,128.31,70.31,124.91,67.78Zm-17.19-7,3.76,0c2.13.22,1.08,2.5.16,4h0c-.45.71-.86,1.24-.86,1.26s-3.85,6.58-1.56,5a14.21,14.21,0,0,0,4.36-5.42,6.81,6.81,0,0,1,1.2-5.67c.79.27,1.57.56,2.35.87s1.63.68,2.44,1a2.36,2.36,0,0,1,.62,1.54c.14,1.7,1,2,1.83,1.73a1.92,1.92,0,0,0,1.11-1.47c.45.31.89.65,1.36.94-.45-.46-.89-.94-1.34-1.4a2.72,2.72,0,0,0-.54-1.44,2.3,2.3,0,0,0-3.15-.57c-.79-.24-1.59-.48-2.38-.74l-2.16-.7c1.64-2.24,4.37-3.73,7.16-2.75,5.62,1.87,4.79,7.94,2.6,9.14l-.11,0a3.11,3.11,0,0,1,.2-.41l0-.23c-.12.25-.25.48-.36.73-2.12,1-4.3-.07-4.53-2.38-.15-1.5-.88-1.91-1.34-2a4.2,4.2,0,0,0-.3.38c-1.73,2.73.83,3.84.83,3.84a26.81,26.81,0,0,1,4.41,2.52c-.86,2.49-1.51,5.07-3,7.09.47,0,.41-.72.72-.59a1.07,1.07,0,0,1-.77.75.65.65,0,0,1-.09.46c-2,.33-4.12.48-6.09,1a4.93,4.93,0,0,1-1.46,1.82,5.71,5.71,0,0,1-1.94-4.46c.07-3.17,4.3-6,7-3.48a2.82,2.82,0,0,0-.93,2.05,2,2,0,0,0,2.33,2.15,2.93,2.93,0,0,0,2.31-2.67c.26-1.81-3.4-3.07-3.4-3.08a7.11,7.11,0,0,1-3.69-2.5c-2.26,3.6-5.7,8.11-9.45,8.12-1.74,0-2.33-1-2.28-2.61,1.55-1.48,2.29-3.89,3-5.83-1,1.83-1.53,4.27-3,5.55,0-.2,0-.41.07-.62a48.1,48.1,0,0,1,2.79-4.92c.14-.06.11-.24.27-.09.66-1.72,1.64-3.14,2-5.16-.12-.15-.16.11-.22-.06Zm8.63-.35c.91.32,2,.57,3,.9a1.58,1.58,0,0,0-.3.19C118.16,61.11,117.26,60.75,116.35,60.39Zm6.8,3.14v-.16l.14.15S123.21,63.56,123.15,63.53Zm-1.88,11.2c.65-1,1.28-2.6,2.06-3.73-.59,1.36-.69,4.22-1.68,5.66-.41-.07-1,0-1.18-.28.09-.45.53-.62.74-1C121.05,75.07,121.51,74.91,121.27,74.73Zm1.53-3.31c.15.2-.26.49-.34.71S122.6,71.51,122.8,71.42Zm0-.22c0-.3.28-.33.44-.49-.07-.18-.17.16-.35.1.2-.16-.09-.34.24-.4-.06.36.21-.31.37.13C123.27,70.53,123.19,71,122.78,71.2Zm.41-1.32c0-.27.46-.29.21-.62.2.06.31.21.27-.18C123.92,69.44,123.45,69.74,123.19,69.88Zm.43.57c.35,0,.42-.31.74-.36a3.45,3.45,0,0,1-.84.82C123.46,70.68,123.72,70.72,123.62,70.45Zm0-.23a8.05,8.05,0,0,0,.27-1.15c.25.2.5.41.73.62A2,2,0,0,1,123.66,70.22Zm-4.51,6.5c.15-.09.86-.3.93,0C119.82,76.71,119.08,76.88,119.15,76.72ZM119,77c-.14.15-.58,0-.69.2-.11,0-.08-.23-.3-.12.35-.19.61-.05,1.06-.17S119.29,77,119,77Zm-2.61.82c-.21,0,.51-.39.1-.39A2.05,2.05,0,0,1,117.9,77a2.16,2.16,0,0,1-.71.59c-.25-.17.29-.23.31-.4C117.14,77.09,116.73,77.57,116.43,77.78Zm-.64,0c.29-.09.37-.36.66-.43-.09.28-.35.41-.49.64-.08,0,0-.06,0-.06S115.88,77.83,115.79,77.83Zm-1.44,1c.09.22.08-.18.27-.1a5.31,5.31,0,0,1-.93,1.16l-.38-.26a3.69,3.69,0,0,1,1-1.86c0-.08-.13,0-.22,0,.07-.19.26-.27.46-.34-.21.64-.7,1-.94,1.66.58-.73,1.08-2.11,2.9-2A6.89,6.89,0,0,0,114.35,78.86Zm1.18-.86c0,.29-.34.24-.37.49C115,78.31,115.35,78.08,115.53,78Zm-2.39,1.54-.27-.22a6.9,6.9,0,0,0,.53-.68c.12,0,.15,0,.08.06C113.37,79,113.25,79.27,113.14,79.54ZM52.68,91.35C37.59,92.49,37.82,80,37.82,80l1.84-1.8c-1.38,5.48,1.44,7.68,1.44,7.68,3.79,3.36,8.7-1.11,8.7-1.11,1.56,2.18,4.22.74,4.22.74l-1.38,4.91ZM40.81,80.8a12,12,0,0,1,.33-2.53c.31.65,1,1,1.52,1.63-.23,0-1.36.33-1.45.82,0-.08.22,0,.21.11a2.08,2.08,0,0,0-.6.35,1.93,1.93,0,0,1,0-.24,2.61,2.61,0,0,0,.24-.23Zm1.56-.43c.17-.09.46-.44.67-.28.05.2-.4,0-.25.25.81-.28,1.17.6,2,.74a17,17,0,0,0,1.49,1.09c.33.22.74.36,1.07.59s.81.67,1.2,1a7.68,7.68,0,0,1-3.63,1.85c-2.4.34-3.9-1.32-4.09-4.06.57-.39,1.06-1.05,2-1.12C42.66,80.2,42.45,80.57,42.37,80.37Zm.86-.52c-.54-.32-1.53-.76-1.77-1.74a6.63,6.63,0,0,1,2.24,2.08C43.6,80.36,43.1,80,43.23,79.85Zm7.74,4c.52.16,1,.33,1.54.52l-.14,0A1.3,1.3,0,0,1,51,83.88Zm1.89.43a.05.05,0,0,1,0,0h0Zm.26-.11-.18-.09c-.59.21-1.35-.17-2.07-.41a4.19,4.19,0,0,1-.23-2.15,14.6,14.6,0,0,1-1.83,2c-.43-.36-.86-.71-1.27-1-.83-.6-1.73-.8-2.45-1.38-.46-.38-1-.86-1.44-1.32-.15-.15-.2-.42-.35-.57s-.65-.37-.93-.61-.72-.65-1.07-1l0-.14a17.5,17.5,0,0,1,6-8.92A72.85,72.85,0,0,1,53.92,72c.37.2.77.25,1.13.44a5.7,5.7,0,0,1,1.41,1c-.32,1.16-.65,2.31-1,3.47a6.08,6.08,0,0,0-.77-.07,2.23,2.23,0,0,0,.73.21c0,.11-.06.21-.1.32s-.06.28-.08.41a2.17,2.17,0,0,0-.47-.8c.08.37.42.84.41,1a9.19,9.19,0,0,0-3.94,1c1.12-.18,2.61-1.14,3.93-.78-.07.78.13,1.07.63,1a7.62,7.62,0,0,0-1,2.62c-.45-.91-1.32-1.28-2.07-1.8a8.17,8.17,0,0,1,2.35,2.37c-.3-1.18.38-2.26.89-3.21h0l.17,0a10.37,10.37,0,0,1-1.12,3.41,1.14,1.14,0,0,1,.1.19A8.24,8.24,0,0,1,53.12,84.2Zm-.24-17a.3.3,0,0,1,0-.35c.2.28.39.57.58.85-.22.74,0,2.42-.17,3.42-.27-.11-.69-.47-.9-.38A28.87,28.87,0,0,1,56.17,73c-3.24-1.66-5.55-3.1-8.64-4.51a6.86,6.86,0,0,1,2.6-1.14,3.06,3.06,0,0,1,3.16,1.13A2.29,2.29,0,0,0,52.88,67.23Zm.15-.44h0l.21,0c0,.14.07.26.1.38A.46.46,0,0,1,53,66.79Zm2.35.58a5.06,5.06,0,0,1,1.29,5.34c0,.12-.07.24-.11.37a3.84,3.84,0,0,0-.66-.56,21.85,21.85,0,0,0-2.12-1c-.13-.32-.2-.39-.08-.68-.12,0-.12.07-.12.17,0-.73,0-2.32,0-3.63.11,0,.14,0,.15.13C54,66.73,54.69,67.17,55.38,67.37Zm-1.05-.53a2.39,2.39,0,0,1,.58.22A1.43,1.43,0,0,1,54.33,66.84Zm6-.91a.3.3,0,0,1,.16-.45L63.33,65c.49,1.83,1.07,3.66,1.53,5.5a6.32,6.32,0,0,0-1,1.82c-.32,0-.61.63-.79,1-.2-.75-1-.88-1.22-1.79.08,0,.21,0,.21-.09-1-.43-1.38-1.58-1.75-2.78L60.75,67C60.91,66.2,60.54,66.14,60.36,65.93Zm9-1.88a17.76,17.76,0,0,1,1.34,2.4c-.23,1.59-.84,3.26-1.2,4.94.51-.49.37-1.56.74-2.17A20.41,20.41,0,0,1,70,71.28c.56-1.23.11-3.35,1-4.32a11.67,11.67,0,0,0,1.39,3.29C72,68.8,71.19,67.91,71,66.51c.62-.41,1-1,1.93-1.14-.08,1.75.14,3.49.2,5.27-.46-1.4-.24-3.69-.38-5-.21,1.39.17,3.63.08,4.9-.26-.16-.6.11-.78,0-.08-.28.08-.33,0-.61-.29,0,0,.41-.07.61-.68.48-1.71.66-2.36,1.18a3.69,3.69,0,0,0-1.52.13,1.74,1.74,0,0,0,0-.22h.75a1.53,1.53,0,0,0-.7-.24c.21-1.42-.34-2.37-1.38-2.21a3.2,3.2,0,0,0-1.64,1,1.59,1.59,0,0,0-.28-1c0-.51-.14-.16,0,.15a2,2,0,0,1,.23.93l0,.06c-.34-1.4-.94-2.84-1.19-4.08,0,.06,0,.15,0,.16A5.31,5.31,0,0,0,63.52,65l1-.17c.71-.12,1.21.7,1,1.58A8.66,8.66,0,0,1,69.32,64.05Zm.15,0,.25-.05a3.11,3.11,0,0,1,3.18,1.23,6.53,6.53,0,0,0-2,1.17C70.47,65.65,70,64.83,69.47,64ZM75,65.45a1.15,1.15,0,0,1,.06-.17l0,0a14.18,14.18,0,0,1,.14,1.81c.12.78.26,1.67.3,2.4l-.65.11a2,2,0,0,0-1.13.68l0,0s0,.07,0,.1a1.89,1.89,0,0,0-.34.09l.32,0-.06.32a1,1,0,0,1-.3,0A34.59,34.59,0,0,1,73,65.35H73a6.33,6.33,0,0,1,.83,3.71C74.23,67.84,74.61,66.64,75,65.45Zm3-2.94a8.26,8.26,0,0,0,2.2.65c.45,2.06,1.23,4,1.25,5.47l-.33,0c-1.78-1-3.93-2.22-5.92-3.2,0-.18,0-.35,0-.51a2.75,2.75,0,0,1,2-1.62l.68-.1Zm1.22.12c.27.18.79,0,.9.39C79.87,62.87,79.4,63,79.26,62.63Zm2.49,5.93c-.27-.11-.12-.51-.19-1,.12.2,0,.43.28.58C81.92,68.4,81.67,68.33,81.75,68.56Zm.12-.16c.12,0,.09.09,0,.15l-.16,0A.41.41,0,0,0,81.87,68.4Zm.23,1.68,1-.22L82.6,72l-1.3.82Zm1.67,3c-.4,1.11-.79,2.21-1.16,3.33l-.52.52c0-1,.12-1.94.23-2.87A14.81,14.81,0,0,0,83.77,73.05ZM82,76.25a3.82,3.82,0,0,1-.1.81c-2.52,2.38-4.31,3-5.17,3.18-.37-1.41-1.2-2.82-1-4.08,0,0,.2-.16.2-.17s-.11-.23-.11-.29c.1-1.26.36-2.72.35-4.27,1.23-.2,2.57-.49,4-.61L79.85,72a0,0,0,0,0,0,0c-.63,2.48-.63,3.39.44,3a11.36,11.36,0,0,0,1.77-.87,6.28,6.28,0,0,0-.16,1C81.89,75.56,82,75.9,82,76.25Zm-6-5c.12-.15,0-.19,0-.38a3.06,3.06,0,0,0,1,0c-.25-.18-.79,0-1.09-.13,0-.15,0-.3,0-.46l.22-.79-.31.05c-.18-1.38-.44-2.84-.47-3.81a39.88,39.88,0,0,1,5.58,3h0l-.42,1.41C78.76,70.42,77.37,71,76,71.23Zm4.35-.94-.07.24a12.82,12.82,0,0,1-2.59.49A10.41,10.41,0,0,1,80.35,70.29Zm-4.44,1.4c0,.24-.12.34-.06.61.16-.1.11-.75.28-.63a34.83,34.83,0,0,0-.39,4,27.19,27.19,0,0,1-.58-3.07l.14-.48A3.58,3.58,0,0,0,75.91,71.69Zm-.39,3.89c0,.33-.07.66,0,1,.08.53.65,1.91.77,2.81,0,.34,0,.18.12.36a2.38,2.38,0,0,1-.19.55h0c-1.63.28-2.76-1.55-2.19-3.56l1.1-3.85C75.2,73.69,75.46,74.63,75.52,75.58Zm-5.66-3.84c.78-.56,2.16-1.35,3.31-1,0,.13,0,.25,0,.37a1.88,1.88,0,0,1,.34,0c0,.13-.06.25-.09.39C72.34,71.54,71,71.76,69.86,71.74Zm3.58-.07c0,.16-.07.31-.12.47a18.3,18.3,0,0,1-2.18,4.8,23.63,23.63,0,0,1-1.41-5C71.11,71.87,72.34,71.66,73.44,71.67Zm-6.7-.82a3.74,3.74,0,0,1-1.56,2.93A3.51,3.51,0,0,1,66.74,70.85Zm-3.6,2.58a2.91,2.91,0,0,1,.69-1.07c0,.09-.06.18-.08.26A7.14,7.14,0,0,0,63.14,73.43Zm.5-.35c0,.07,0,.15,0,.22l-.1,0A1,1,0,0,1,63.64,73.08Zm-2.08-1c-.28.33.21,1.3-.17,1.53-.13-.6,0-1-.12-1.58.08-.23.42.13.34-.17.26.38.09,1.66.16,1.95C61.41,73.49,61.66,72.69,61.56,72.12Zm-.6.36c0-.22-.12-.19-.11-.37l.35,0c0,.19,0,.09-.13.08C61.2,72.39,61.27,72.39,61,72.48ZM60.83,72c-.21-.22.58-.39.89-.3C61.59,71.9,61,71.77,60.83,72Zm1.44,3.13a.32.32,0,0,0,.22.06,2.22,2.22,0,0,1-.79.52C61.82,75.41,62.13,75.32,62.27,75.09Zm.12-.23c-.25.08-.27.44-.61.28a2.72,2.72,0,0,1,.18-.85c.17,0,.24.2.33.35.15,0,0-.32,0-.45.21-.2.59-.25.8-.45.41.43.09.94.26,1.57A1.86,1.86,0,0,1,62.39,74.86Zm-.55-2.76a9.06,9.06,0,0,1,1.33,1.55c-.51.06-.88.59-1.26.18.05-.31.21,0,.36,0C61.85,73.46,61.92,72.88,61.84,72.1Zm-1.43-2.45a2.15,2.15,0,0,0-.27-.45l.14-.49A2.4,2.4,0,0,1,60.41,69.65Zm1.07,1.8c-.4-.07-.68.22-.84.15a11,11,0,0,1-.52-2A6.62,6.62,0,0,1,61.48,71.45Zm-.21,2.44c0,.18.19,0,.12-.16.23,0,.17.36.22.59-.32.1-.42.4-.8.44.15.22-.4.78-.74,1,.09,0-.55-.07-.56.12-.28-.5-.59-.89-.85-1.41L60,69.74C60.12,71.1,61,72.3,61.27,73.89ZM61.12,75c.26.36.15-.4.45-.41-.13.35-.21.75-.36,1.09C61,75.57,61.37,75.28,61.12,75ZM60,76c.34,0,0,.35,0,.46C59.72,76.33,60,76.15,60,76Zm1,.15a3.14,3.14,0,0,1-1,.54A1.74,1.74,0,0,1,61,76.11Zm-.22-.66c0,.26-.18.29-.15.54C60.47,75.92,60.58,75.48,60.75,75.45Zm.11.36c0-.26.18-.29.15-.54C61.26,75.23,61,75.79,60.86,75.81Zm-1.67.37c-.08,0-.12,0-.13.09a7.69,7.69,0,0,1-.68-.81l.18-.63A2,2,0,0,1,59.19,76.18ZM58.67,76c.06.15.32.44.06.52,0-.28-.37,0-.17-.29a1.41,1.41,0,0,0-.49.33l.23-.8.07.11C58.52,76,58.6,75.92,58.67,76Zm.37.72c0,.3-.45.41-.7.67a8,8,0,0,0-.81,1s0,0,0,0l.1-.1.22-.76C58.14,77,58.51,76.57,59,76.72Zm.12.37c.17.15.23.44.36.65.17-.11,0-.45-.13-.52a33.41,33.41,0,0,1,3.27-1.86c.92.6,1.82,1.23,2.73,1.84A4.85,4.85,0,0,0,63.74,76c0-.76-.3-1.66-.29-2.48l.12,0c-.14,1.32.41,2.18,1.4,2,1.15-.19,2.48-1.72,3-3.43.39-.11.78-.21,1.19-.3-.43.32.25,0,.44.12A39,39,0,0,0,71,77.11a15.54,15.54,0,0,1-3.24,3.67,20.28,20.28,0,0,1-2-3.48c-.16.25.38.73.05,1,.6.66.74,2,1.1,3.13a6.71,6.71,0,0,1-2.38,1,3.06,3.06,0,0,1-3.18-1.2l-.23.8a20.35,20.35,0,0,1-3.59-2.59c0-.43.15-.45-.09-.75C58,78.14,58.34,77.41,59.16,77.09Zm7.72,3.15c.17,0,.38.26.26.42C66.94,80.55,67,80.47,66.88,80.24Zm.17,1.07,0,0s0-.09,0-.14A.6.6,0,0,1,67.05,81.31Zm.25-.16a.47.47,0,0,0-.09.06,1.73,1.73,0,0,0-.1-.24ZM61,82.3l-.13.45c-.43-1-1.41-1.19-1.94-2,.52.45,1.48.77,1.67,1.37A.43.43,0,0,1,61,82.3Zm-1.56-.92s0,.05,0,.05a17.73,17.73,0,0,0,1.44,1.43l-.36,1.29A11.58,11.58,0,0,1,59.27,87c-1-.9-1.66-2-2.47-2.72.11-.25-.34-.63-.61-1l.56-2c-.1.12-.19.22-.29.32.23-.72.47-1.43.69-2.17C57.94,80,58.68,80.72,59.46,81.38Zm-3.53,2.77c.27.59-.5,1.71-.65,2.34a1,1,0,0,0,0-.17Zm-.54-1.6s0,0,0,0a0,0,0,0,0,0,0S55.39,82.57,55.39,82.55Zm.68,2.14a5,5,0,0,1-.63,1.86A17.65,17.65,0,0,1,56.07,84.69Zm-.54-2.2c-.2-.77.65-1.24.83-1.91a1.67,1.67,0,0,1-.15,1.23C56,82.05,55.75,82.28,55.53,82.49Zm.14-1.18a9.35,9.35,0,0,0,.6-1.56C56.66,80.37,56,80.93,55.67,81.31Zm1.49-2.47a1.15,1.15,0,0,0-.17-.06l.29-.24A.59.59,0,0,1,57.16,78.84Zm-.11.32a3.39,3.39,0,0,1-.35,1.24c-.26-.27-.21-.83-.28-1.26l.12-.06a1.76,1.76,0,0,0,.4.32.67.67,0,0,0-.29-.38l.1-.07A.75.75,0,0,0,57.05,79.16Zm-2,9.91c-.32-.41-.09.46-.37.49A13.92,13.92,0,0,1,55.14,87c.21.57-.16,1.21-.22,1.76C55,88.92,55.25,88.88,55.09,89.07Zm-1,1.61a2.55,2.55,0,0,1,.17-.33s0,0-.06,0l0,0c.14-.07.35-.2.07-.29v0c.16-.29.19.14.45.29a2.93,2.93,0,0,0,.65.22,5.94,5.94,0,0,1-1.35.39Zm.85-.61c0-.44,0-.72.32-.93-.07-1.92.71-3.1,1-4.7A7,7,0,0,1,58.55,87c.14,0,.23,0,.24.14-.19-.07,0,.13.21.29a8.48,8.48,0,0,1-3.37,3C55.39,90.28,55.16,90.18,54.93,90.07Zm7.37-6.36C68.12,85.35,72.39,78,72.39,78c.22,3.1,2.47,3.72,2.47,3.72,3.57,1.26,8.86-4.17,8.86-4.17.61,1.61,3.26,2.07,3.26,2.07a40.63,40.63,0,0,0-10.42,4.19c-5.27,3-18.28,6.74-18.28,6.74C62,86.93,62.3,83.71,62.3,83.71ZM86.83,78a3.91,3.91,0,0,1-2.73-3.27q-.52.61-1,1.14c.17-.46.33-.93.45-1.35s.26-1.11.44-1.64c0,0,0,0,0,0a.07.07,0,0,0,0,0,3.05,3.05,0,0,1,.45-.88c-.09-.32.19-.32.14-.62a25.06,25.06,0,0,1,5.16,2.07c-.62,1.31-1.3,2.15-1.94,3.41.31-.21-.07.65-.28.71,0-.3.25-.36.29-.63A4.42,4.42,0,0,1,86.83,78Zm-2.17-8.34c.16-.15.14.14.34-.11a2.65,2.65,0,0,0,0,.76.65.65,0,0,1-.46-.16l.12-.33a.52.52,0,0,1,0,.3C84.7,70.1,84.8,69.72,84.66,69.68Zm.08-.26s0,0,0,0h0Zm.11-.07c.05-.06,0-.18.18-.16A.55.55,0,0,1,84.85,69.35Zm.51,1.4c-.21.06-.62-.17-1-.26,0,0,0-.06,0-.09C84.76,70.33,85.13,70.61,85.36,70.75Zm-.24-.81c0-1.58,1.08-2.15,1.77-3.1,0,.24-.19.37-.21.63.47-.18.1-1.07.72-1.12,0-.09,0-.13-.08-.14,1.07-.82,2.88-1,4.23-1.57-.18.54-.36,1.07-.52,1.6a5.64,5.64,0,0,0-1.4,2.34c-.36,1.17-.18,2.11.36,2.52A10.75,10.75,0,0,0,90,72.94c-.2,0-.19-.22-.38-.2-.17.17.33.2.34.42a7.33,7.33,0,0,1-1.53-.85c.07-.11.44.1.59.18-1.11-.66-2.46-1-3.43-1.84-.13.19-.25-.11-.44-.11,0-.19-.15-.15-.11-.37.19.07.23.33.4.42C85.65,70.33,85.21,70.14,85.12,69.94Zm.5-5.94a1.31,1.31,0,0,1,.36.47s0,0,0,0A7.13,7.13,0,0,1,85.26,66a7.06,7.06,0,0,1,.12-1.7c.16,0,.08.33,0,.38C85.72,64.66,85.49,64.17,85.62,64Zm.23-.47c.3,0,.1.53-.08.53C85.63,63.73,86,63.81,85.85,63.53Zm-.57,4.74v-.09a15.33,15.33,0,0,1,1.5-2.5c.08.13.16.26.23.4C86.27,66.66,85.93,67.6,85.28,68.27Zm1.68-2c0,.65-.91,1.14-1.22,1.77C85.89,67.45,86.61,66.83,87,66.23Zm4.23-1.63A38.81,38.81,0,0,0,87.29,66C88.09,65.09,89.65,64.86,91.19,64.6Zm-3.69.75c.31-1.16,1.65-.94,2.89-.84A10,10,0,0,0,87.5,65.35Zm5.9.5a37.74,37.74,0,0,1,3.26,2.22l-.21,0c.77.07,1.1.7,1.75.92a2.22,2.22,0,0,1-.73,1c0,.11.22,0,.29-.17a4.93,4.93,0,0,1-1.3,1.92c0,.07.1,0,.15.06a12.08,12.08,0,0,1-1.06,2,16.5,16.5,0,0,1-2,1.93,41.47,41.47,0,0,0-3.08-4c0-.17,0-.32-.07-.48a1.32,1.32,0,0,0,.49,0c1.19-.18,2.57-1.66,3.07-3.3a1.42,1.42,0,0,0,.05-.16c-1.49.17-2.05-1-2.25-2.2l-.28.2c0-.22.09-.43.14-.6A3.62,3.62,0,0,1,93.4,65.85ZM93,63.46A9.56,9.56,0,0,0,92,64.68C91.87,64.14,92.64,63.78,93,63.46Zm5.15,4.86c0,.24.27.17.27.44a.29.29,0,0,1,.16,0,.78.78,0,0,0,0,.16,1,1,0,0,1-.18-.15c-.4-.06-.62-.36-1-.45.46-.09.6,0,1.2-.17C98.58,68.39,98.43,68.52,98.19,68.32Zm.51.92a5.31,5.31,0,0,0-.9-.58,5.53,5.53,0,0,1,.86.36A1.24,1.24,0,0,0,98.7,69.24Zm-3.84-2.53c.64.07,1.77,1,2.65,1.3C96.5,68.08,95.76,67.06,94.86,66.71Zm3,4.74a18.06,18.06,0,0,1,2.72.6c-1.25,1.36-2.49,2.25-3.49,2.28a2.06,2.06,0,0,1-1.3-.35,2.42,2.42,0,0,1,.46-.5,3.52,3.52,0,0,1,1-2.28,7.23,7.23,0,0,1,1.3-.48c.47-.21.87-.58,1.22-.56a3.29,3.29,0,0,1,1.59,1c-.23.28-.45.55-.68.8a14.39,14.39,0,0,0-3.48-.57C97.36,71.69,97.56,71.43,97.85,71.45Zm-9.71,5.27c.08-.26.46-.27.58-.49-.15-.24-.16.2-.42.1a1.2,1.2,0,0,1,.6-.35C88.9,76.45,88.51,76.58,88.14,76.72Zm.42,0c-.06.24-.37.25-.6.35C88,76.82,88.35,76.8,88.56,76.69Zm0-.91a1.52,1.52,0,0,1,.59-.5C89.06,75.58,88.8,75.69,88.52,75.78Zm.36-.55c.1-.26.34-.39.43-.64-.37.12.38-.53.5-.93A2.6,2.6,0,0,1,88.88,75.23Zm2-1.08a6.63,6.63,0,0,1-1.41.8C89.77,74.57,90.4,73.91,90.9,74.15ZM90.26,73c-.22-.39,0-1-.19-1.57C90.35,71.65,90.34,72.43,90.26,73Zm.15.06c0,.13,0,.26,0,.38-.1-.1-.31-.06-.32-.28C90.26,73.15,90.28,73.05,90.41,73.05Zm-.25.33c.12.07.2.2.32.28-.13.13-.39.14-.46.34C89.85,73.84,90.46,73.68,90.16,73.38Zm-.51,1.71a10.84,10.84,0,0,1,1.27-.79c.18,0,.13.29.31.28C90.85,74.87,90.12,74.86,89.65,75.09Zm.57,0c-.07.2-.44.16-.61.27C89.67,75.11,90,75.09,90.22,75Zm.39-1.47a12.36,12.36,0,0,0-.08-1.28c.85,1.33,1.92,2.37,2.71,3.77l-.12.09A25.51,25.51,0,0,0,90.61,73.57Zm0-1.36a14.13,14.13,0,0,1,2.79,3.73.12.12,0,0,0,0,0C92.51,74.61,91.47,73.52,90.6,72.21Zm.84-3.85.49.43-.85.63Zm-.25-2.28a1,1,0,0,1,.14-.29.2.2,0,0,1,0,.13Zm-2.48,6.51c-.88-.09-2.15-.92-3-1-.13,0-.08-.24-.24-.2,0-.09.07,0,.07,0A8,8,0,0,1,88.71,72.59Zm-2-1c-.79-.18-1.63-.47-2.44-.68,0-.1,0-.2.08-.3A9.6,9.6,0,0,1,86.74,71.55Zm-2.33-.33L84,72.3a11,11,0,0,1,.19-1.1ZM88.31,77c.19,0,.1,0,.09.15l-1.06,1-.28,0A7.64,7.64,0,0,0,88.31,77Zm.13.45c.24-.71.62-1.3.83-2,.66.2,1.35-.68,2.34-.65A12.88,12.88,0,0,1,93,76.27a9.68,9.68,0,0,1-4,1.83,5.54,5.54,0,0,1-1.45.06C87.8,77.92,88.12,77.68,88.44,77.46ZM96,75.71s2.39,1,5.27-2.12c0,0,.34,3.15,3.32,3.31a6.63,6.63,0,0,0,4.72-1.51,6.83,6.83,0,0,0,1.18,3.45,46.23,46.23,0,0,0-17.6-.65A21.82,21.82,0,0,0,96,75.71ZM103,71c0-.17.09-.36.14-.55.23.17.1-.31.38-.27C103.27,70.41,103.23,70.79,103,71Zm3.92-7a13.16,13.16,0,0,0,.46-2.16c.39.53-.19,1.68-.36,2.38C106.78,64.23,107,63.73,106.87,64Zm.52-3.25h.13a.28.28,0,0,1-.1.09c.13.32.2.73-.11.84A5.19,5.19,0,0,0,107.39,60.73Zm-.2,0c-.07.18-.14.35-.22.52,0-.17,0-.35-.06-.52Zm-6.78,3.74c.5-1.27,1-2.54,1.5-3.79.07-.18.14-.37.21-.54s.29-.23.36-.06a1.64,1.64,0,0,0,.46.6l3.68,0A6.46,6.46,0,0,1,107,62.6c-.64,1.24-1.58,2.56-1.65,4.08a16.47,16.47,0,0,1,1.57-3.62c0,.5-.39.92-.28,1.24,0-.17.17-.19.21,0-.51,0-.21.67-.46.42a4.41,4.41,0,0,1-1.21,2.37c0-.06.26-.25,0-.31a21.88,21.88,0,0,1-2.08,3.59,32.45,32.45,0,0,1,1.36-3.76l-.29,0a26.43,26.43,0,0,1-2.66,4.28A3.11,3.11,0,0,1,101,70c-.1-.28-.21-.58-.31-.88a9.65,9.65,0,0,0,1.65-2.22h0a2,2,0,0,1-1.77-.9c.43-1,1-1.92,1.41-3,.2-.18.64-.81.39-.94-.53,1.25-1.32,2.58-1.88,3.76A1.69,1.69,0,0,1,100.41,64.47Zm.64,5.73c-.12.19-.28-.32-.53-.25,0-.17.25,0,.35-.11C100.92,70,100.94,70.15,101.05,70.2Zm-.58-.9a.58.58,0,0,1,.07.19.17.17,0,0,0-.26,0Zm-.2.17a.8.8,0,0,0-.2.22.2.2,0,0,0-.09,0Zm.92,1.33c-.44-.18-.77-.49-1.22-.66C100.24,69.47,101,70.36,101.19,70.8Zm-1.42-1c.06.06.13.11.18.17a2.55,2.55,0,0,1-.33-.11A.47.47,0,0,0,99.77,69.75Zm-.37.15a1.24,1.24,0,0,1,.21.19c-.85.32-1.6.72-2.44,1a7.29,7.29,0,0,1,1.3-1.62c0-.17-.31,0-.27.1-.22-.11,0-.36.09-.46l.47.29c.12.36.33.54.63.46Zm-.27-3.48a22.91,22.91,0,0,0-4.91-3.29,31.21,31.21,0,0,1,4.9,3.47c-.06.41-.15.83-.26,1.27a1.34,1.34,0,0,1-1.12.27C96.09,66.86,93.81,66.4,92.3,65c.3.07.48-.4.76-.75a15.6,15.6,0,0,0,1.13-1.3c-.77.34-1.37,1.7-2.18,2,1-1.68,2.83-2.71,4.27-4.06C98.36,61.52,99.45,63.62,99.13,66.42Zm-4.53-4.3a11.54,11.54,0,0,1,1.09-1A2.44,2.44,0,0,1,94.6,62.12Zm-.37-1.46a5.32,5.32,0,0,1,1.56.07c-1.13,1.37-2.73,2.28-4,3.66-.83.25-2.29-.31-3.36-.09-.81.16-.83.94-1.42,1.24,0,0,0-.09,0-.13C89,62.77,91.69,60.89,94.23,60.66Zm-7.38,4.91.05-.06c0,.06,0,.12.07.2Zm-.22-4c.18-.16.34-.08.27.15l-.65,2a4.84,4.84,0,0,1-.38-1.53A2.33,2.33,0,0,0,86.63,61.54Zm-.82,1.69c.15.06,0,.46-.15.46C85.64,63.47,85.81,63.43,85.81,63.23Zm-3-6.65.17-.42h0a3.12,3.12,0,0,1,.61,3l-1,3.38,3-.39h.05c0,.42-.07.88-.09,1.29-.09,0-.08-.12-.16-.13.19.47-.26.86-.33,1.39a9.82,9.82,0,0,0,0,1.64,5.41,5.41,0,0,1-2.9,2.13,50.07,50.07,0,0,1-1.86-5.8c-.78,0-1.41-.25-2.21-.26l.76-2.62h0A5.51,5.51,0,0,0,82.83,56.58Zm-28,6.74s3.49.64,7.87-2.07,5.31-1.86,7.82-1.57a28.76,28.76,0,0,0,6.75.42l-.53,1.75A4.24,4.24,0,0,0,74,64a4.58,4.58,0,0,0-3.58-1.65,7.22,7.22,0,0,0-4.16,1.45,2.3,2.3,0,0,0-1.52-.57l-4.42.7a1.82,1.82,0,0,0-1.49,1.82,1.64,1.64,0,0,0,.41,1.14h0l-.81,2.91A6.06,6.06,0,0,0,57.28,67a4.51,4.51,0,0,0-3.6-1.84,2.81,2.81,0,0,0-1.79.6s-2.27-.68-5.32,1.51A32.67,32.67,0,0,0,48.45,59h0A8.18,8.18,0,0,0,54.8,63.32Zm64.33,22a35.45,35.45,0,0,0-36.55,3.63C61.86,104.1,40.72,111.45,30.83,99.73c-6-7.14-7-11.25-6.55-13.53-1.43.52-2.73.91-3.87,1.21l-2.59,7.86a16.75,16.75,0,0,1-12.47,11.2l12.32-38c.27-1.32-.46-1.37-.81-1.69a.45.45,0,0,1,.29-.73L25,64.55a1.73,1.73,0,0,1,2,2.37l-4.95,15.5c17.79-6.35,17.9-27.85.19-20C5.13,69.91,11,80.52,11,80.52c-13.68-3.65-5.74-18.14,7.24-26C31,46.85,52.57,45.32,45.53,65.62A31.34,31.34,0,0,1,36.26,79.3c0,1.87.36,8.88,6.82,12.06l0,.14,1.26.59-.09.93,1.51,1,0,1,1.57.77,1.18.6.17.77,1.72.94.7,1.1,1,.75.45,1.89,0,2.23.73-2.76.06-1.77-.51-.72.05-.68L52.09,97l-.34-1.63.28-.56-.19-1L51.18,93l-.08,0A40.23,40.23,0,0,0,61.16,91.4l.88.47.06.6,1,.44.8.34.13.48,1.16.52.48.67.68.44.33,1.16.39,1.24.06-1.59V95.06l-.35-.44,0-.41-.57-.66-.26-1,.17-.36L66,91.59l-.46-.51-1-.55v-.16c2.47-.8,5.16-1.82,8.08-3.08l.19.47.92.17.71.13.23.4,1,.23.55.49.64.25.57.95.64,1L77.79,90l-.3-1-.39-.31-.1-.37-.62-.46L75.91,87l0-.35-.27-.48-.22-.16q2.15-1,4.45-2.14S103.64,72,119.13,85.31ZM16,67.93l.22.17L12.39,79.81S9.15,73.15,16,67.93Zm9-5c5.92-2.32,10.35.29,8.54,6.61s-8.93,10.08-8.93,10.08L28.76,67.1C29.6,62.38,25,63,25,63Zm93.76,17.83a7.23,7.23,0,0,1-4.86-.78,3.87,3.87,0,0,1,2.75-1.8,40.23,40.23,0,0,1,7,0A9.76,9.76,0,0,1,118.74,80.79Zm5.1-2.77a57.38,57.38,0,0,0-7.73.09c1.4-.86,3.66-1.1,5.27-1.27.35,0,.71-.29.93,0a4.88,4.88,0,0,1,.61-.27c.62.1,1.31.15,2,.21A9.53,9.53,0,0,1,123.84,78ZM125,76.57a10.47,10.47,0,0,0-3-.09,2,2,0,0,1,.45-.41c-.13-.2-.28.21-.35,0,.76-2.19.69-5.1,2.71-6.2a4.15,4.15,0,0,1,1.48,2.89A7.3,7.3,0,0,1,125,76.57Z"/><path class="cls-3" d="M54.05,71.31c0-.17.26-.39,0-.53C54.05,70.92,53.9,71.27,54.05,71.31Z"/><path class="cls-3" d="M65.46,77.3a1.83,1.83,0,0,0,.25.91A1.33,1.33,0,0,0,65.46,77.3Z"/><path class="cls-3" d="M65.45,77.25l-.07,0,.08.1S65.45,77.27,65.45,77.25Z"/><path class="cls-3" d="M60,79a7.9,7.9,0,0,0,1.06,2.94A26,26,0,0,1,60,79Z"/><path class="cls-3" d="M71.77,68.63a7,7,0,0,0,1,1.59A10.36,10.36,0,0,0,71.77,68.63Z"/><path class="cls-3" d="M59.72,78.25A2.48,2.48,0,0,0,60,79C60,78.9,59.78,78.17,59.72,78.25Z"/><path class="cls-3" d="M51.61,78.4c.51-.19.61-.73,1-1.06C52.11,77.57,52,78.07,51.61,78.4Z"/><path class="cls-3" d="M46.73,75.59l0,.12c-.55,1.92.06,3.3,1.37,3.09a2.62,2.62,0,0,0,1.07-.49l.37.34a11.29,11.29,0,0,1,2.71,1.21c-.37-.45-1.09-.48-1.4-1,.22-.08.28,0,.37.12a10.15,10.15,0,0,1,1.15-1.69c.07-.06.25,0,.35-.1.42-.32.47-.88.89-.91s.68.69,1.17.28c-.55,0-.88-.46-1.33-.41-1,.1-1.47,2-2.27,2.45a2.21,2.21,0,0,1-1.91-.34,6.61,6.61,0,0,0,2.08-3,5.43,5.43,0,0,0,1.74.84c-.59-.29-1.14-.63-1.72-.93a2.41,2.41,0,0,0,.08-.25c.55-1.93-.06-3.32-1.36-3.09s-2.63,1.77-3.25,3.55a8,8,0,0,0-1.06-1.47C46.07,74.43,46.39,75,46.73,75.59Zm3.42-2.19a4.18,4.18,0,0,1-2,3.76A4.47,4.47,0,0,1,50.15,73.4Z"/><polygon class="cls-3" points="96.53 58.17 98.71 58.17 101.57 50.25 99.39 50.25 96.53 58.17"/><polygon class="cls-3" points="106.75 58.17 107.54 55.99 104.04 55.99 106.11 50.25 103.93 50.25 101.07 58.17 106.75 58.17"/><path class="cls-3" d="M114.38,56.7l1.75-4.84-1-1.54H111l-2.86,7.93h4.13Zm-2-4.2h1.31l-1.29,3.56h-1.31Z"/><path class="cls-3" d="M89.63,58.17,91.57,55l-.38,3.21H93.5l3.78-6.26C99.36,48.11,102,48,102,48c-3.86-.31-5.21,1.2-5.88,2.07L94,53.67l.4-3.42h-2.2L90.1,53.67l.41-3.42H88.26l-.94,7.92Z"/><path class="cls-2" d="M79.91,83.91q-2.31,1.16-4.45,2.14l.22.16.27.48,0,.35.47.83.62.46.1.37.39.31.29,1,.38,1.4-.63-1L77,89.43l-.65-.25-.55-.49-1-.23-.22-.4-.71-.13-.93-.17-.18-.47c-2.92,1.26-5.61,2.28-8.08,3.08v.16l1,.55.46.51.14.59-.17.36.26,1,.57.66,0,.41.35.44v1.11l-.06,1.59-.39-1.24-.34-1.16-.67-.44-.49-.67-1.15-.52-.13-.48-.8-.34-1-.44-.05-.6-.88-.47A40.23,40.23,0,0,1,51.1,93l.08,0,.66.84.19,1-.28.56L52.09,97l.83,1.08-.05.68.5.72-.06,1.77L52.59,104l0-2.23-.44-1.89-1-.75-.7-1.1-1.72-.94-.17-.77-1.19-.6-1.56-.77,0-1-1.52-1,.09-.93-1.26-.59v-.14c-6.46-3.18-6.84-10.19-6.82-12.06a31.42,31.42,0,0,0,9.27-13.68c7-20.3-14.57-18.77-27.32-11.08-13,7.84-20.93,22.33-7.25,26,0,0-5.83-10.6,11.28-18.14,17.7-7.81,17.6,13.69-.19,20L27,66.92A1.72,1.72,0,0,0,25,64.55L17.15,66a.45.45,0,0,0-.29.73c.34.31,1.08.37.8,1.69L5.35,106.48A16.77,16.77,0,0,0,17.82,95.27l2.59-7.86c1.14-.3,2.45-.69,3.87-1.21-.43,2.28.53,6.39,6.56,13.53,9.88,11.72,31,4.37,51.74-10.79a35.45,35.45,0,0,1,36.55-3.63C103.64,72,79.91,83.91,79.91,83.91Z"/><path class="cls-2" d="M54,90.85a5.85,5.85,0,0,0,1.36-.38,2.78,2.78,0,0,1-.65-.23c-.26-.15-.29-.57-.46-.28v0c.28.08.07.21-.08.28v0s.06,0,.06.06a1.38,1.38,0,0,0-.17.32Z"/><path class="cls-2" d="M55.14,87a13.92,13.92,0,0,0-.42,2.53c.28,0,.05-.9.37-.49.16-.18-.09-.15-.17-.28C55,88.24,55.35,87.6,55.14,87Z"/><path class="cls-2" d="M91.19,66.08l.18-.16a.2.2,0,0,0,0-.13A1,1,0,0,0,91.19,66.08Z"/><path class="cls-2" d="M113.59,79.07c.24-.61.73-1,.94-1.66-.2.07-.39.15-.46.34.09,0,.2,0,.22,0a3.77,3.77,0,0,0-1,1.86l.38.26a5.31,5.31,0,0,0,.93-1.16c-.19-.08-.18.32-.27.1a6.89,6.89,0,0,1,2.14-1.77C114.67,77,114.17,78.34,113.59,79.07Z"/><path class="cls-2" d="M122.31,76.83c-.22-.28-.58,0-.93,0a13.92,13.92,0,0,0-5.27,1.27,57.38,57.38,0,0,1,7.73-.09,9.61,9.61,0,0,0,1.06-1.25c-.67-.06-1.35-.1-2-.2A3.73,3.73,0,0,0,122.31,76.83Z"/><path class="cls-2" d="M98.62,68.75a.29.29,0,0,0-.16,0l.18.16A1,1,0,0,1,98.62,68.75Z"/><path class="cls-2" d="M116.63,78.22a3.81,3.81,0,0,0-2.75,1.8,7.23,7.23,0,0,0,4.86.77,9.75,9.75,0,0,0,4.93-2.6A38.37,38.37,0,0,0,116.63,78.22Z"/><path class="cls-2" d="M85.08,70.18c0,.21.12.18.11.36.19,0,.31.3.44.12,1,.84,2.32,1.17,3.43,1.83-.15-.08-.52-.29-.59-.18a7.36,7.36,0,0,0,1.53.86c0-.23-.51-.26-.34-.43.19,0,.18.23.38.2A10.64,10.64,0,0,1,90,71.11c-.55-.41-.72-1.36-.36-2.53A5.54,5.54,0,0,1,91,66.24c.16-.53.33-1,.52-1.59-1.35.57-3.16.75-4.23,1.56a.11.11,0,0,1,.08.14c-.62.05-.25,1-.72,1.12,0-.25.18-.39.21-.63-.69,1-1.81,1.52-1.77,3.11.1.19.53.39.36.65C85.31,70.51,85.27,70.24,85.08,70.18Z"/><path class="cls-2" d="M113.39,78.64a5.57,5.57,0,0,1-.52.68c.09.07.17.15.27.22.11-.27.23-.55.33-.84C113.55,78.69,113.52,78.6,113.39,78.64Z"/><path class="cls-2" d="M99.77,69.75a.47.47,0,0,1-.15.06,2.55,2.55,0,0,0,.33.11C99.9,69.86,99.83,69.81,99.77,69.75Z"/><path class="cls-2" d="M98.76,69.45l-.47-.3c-.05.1-.31.35-.09.46,0-.11.23-.27.27-.1a7.29,7.29,0,0,0-1.3,1.62c.84-.31,1.59-.72,2.44-1a2,2,0,0,0-.21-.2h0C99.09,70,98.89,69.8,98.76,69.45Z"/><path class="cls-2" d="M101.35,71.13a3.24,3.24,0,0,0-1.59-1c-.35,0-.75.35-1.22.56a7.23,7.23,0,0,0-1.3.48,3.5,3.5,0,0,0-1,2.28,3.14,3.14,0,0,0-.46.5,2.06,2.06,0,0,0,1.3.35c1,0,2.25-.92,3.49-2.28a17.94,17.94,0,0,0-2.71-.6c-.3,0-.49.24-.66-.09a14.47,14.47,0,0,1,3.48.57C100.9,71.68,101.13,71.41,101.35,71.13Z"/><path class="cls-2" d="M93.39,75.94a14.47,14.47,0,0,0-2.79-3.73c.87,1.31,1.91,2.4,2.74,3.78A.12.12,0,0,1,93.39,75.94Z"/><path class="cls-2" d="M103.09,70.43c0,.19-.1.38-.14.55.28-.19.31-.57.52-.82C103.19,70.12,103.32,70.6,103.09,70.43Z"/><path class="cls-2" d="M100.27,69.47l-.29.17.08,0A1.07,1.07,0,0,1,100.27,69.47Z"/><path class="cls-2" d="M56.65,79a.72.72,0,0,1,.29.38,1.57,1.57,0,0,1-.4-.32l-.12.06c.06.43,0,1,.27,1.26a3.39,3.39,0,0,0,.36-1.25.55.55,0,0,1-.3-.21Z"/><path class="cls-2" d="M58.34,77.39c.25-.26.65-.37.7-.66-.53-.16-.9.3-1.22.75l-.22.76a.81.81,0,0,1-.1.09l0,0A7.39,7.39,0,0,1,58.34,77.39Z"/><path class="cls-2" d="M98.46,68.76c0-.27-.24-.2-.27-.43.24.19.39.06.48-.19-.6.15-.74.08-1.2.17C97.84,68.41,98.06,68.71,98.46,68.76Z"/><path class="cls-2" d="M60.07,75.73c.34-.19.89-.75.74-1,.38,0,.48-.33.8-.44,0-.23,0-.59-.22-.59.07.12-.1.34-.12.16C61,72.3,60.12,71.11,60,69.74l-1.33,4.71c.26.51.57.9.85,1.4C59.52,75.67,60.16,75.68,60.07,75.73Z"/><path class="cls-2" d="M98.7,69.24c0-.06,0-.14,0-.22a5.09,5.09,0,0,0-.85-.36A5.31,5.31,0,0,1,98.7,69.24Z"/><path class="cls-2" d="M90.4,71.28c0,.16,0,.31.07.48a43.11,43.11,0,0,1,3.08,4,16.43,16.43,0,0,0,2-1.93,12.12,12.12,0,0,0,1.07-2s-.14,0-.15-.06a4.93,4.93,0,0,0,1.3-1.92c-.07.13-.24.28-.29.17a2.29,2.29,0,0,0,.73-1c-.65-.22-1-.85-1.75-.92l.21,0a39.36,39.36,0,0,0-3.26-2.22,3.62,3.62,0,0,0-1.78-.61c-.05.17-.09.38-.14.6l.28-.2c.19,1.18.75,2.37,2.25,2.2A1.42,1.42,0,0,1,94,68c-.5,1.64-1.88,3.12-3.08,3.3A1.28,1.28,0,0,1,90.4,71.28Z"/><path class="cls-2" d="M100.54,69.49a.58.58,0,0,0-.07-.19l-.19.16A.17.17,0,0,1,100.54,69.49Z"/><path class="cls-2" d="M67.05,81.31A.6.6,0,0,0,67,81.2s0,.09,0,.14Z"/><path class="cls-2" d="M67.21,81.2l.09,0c-.07-.07-.13-.12-.19-.19A2.44,2.44,0,0,1,67.21,81.2Z"/><path class="cls-2" d="M66.88,80.24c.16.23.06.31.26.42C67.26,80.5,67.05,80.28,66.88,80.24Z"/><path class="cls-2" d="M63.83,72.36a2.91,2.91,0,0,0-.69,1.07,7.14,7.14,0,0,1,.61-.81C63.78,72.54,63.8,72.45,63.83,72.36Z"/><path class="cls-2" d="M63.64,73.08a1,1,0,0,0-.15.25l.1,0C63.61,73.23,63.62,73.15,63.64,73.08Z"/><path class="cls-2" d="M73.56,71.17a2,2,0,0,0-.35,0c0-.12,0-.24,0-.37-1.15-.39-2.53.4-3.31,1,1.14,0,2.48-.2,3.6-.18C73.5,71.42,73.53,71.3,73.56,71.17Z"/><path class="cls-2" d="M60.61,82.11c-.18-.59-1.15-.91-1.66-1.37.53.82,1.5,1.07,1.94,2L61,82.3A.43.43,0,0,0,60.61,82.11Z"/><path class="cls-2" d="M81.91,68.55c0-.07.08-.12,0-.15a.3.3,0,0,1-.13.18A.47.47,0,0,0,81.91,68.55Z"/><path class="cls-2" d="M57.51,79.42A20.35,20.35,0,0,0,61.1,82l.23-.8a3.06,3.06,0,0,0,3.18,1.2,6.71,6.71,0,0,0,2.38-1c-.36-1.15-.5-2.47-1.1-3.13.33-.25-.21-.73-.05-1a21.07,21.07,0,0,0,2,3.48A15.77,15.77,0,0,0,71,77.11a39,39,0,0,1-1.42-5.2c-.19-.12-.87.2-.44-.12-.41.09-.8.19-1.19.3-.52,1.71-1.85,3.24-3,3.43-1,.17-1.54-.69-1.4-2l-.12,0c0,.82.33,1.72.29,2.48a5,5,0,0,1,1.65,1.17l.06,0a.09.09,0,0,1,0,0,1.33,1.33,0,0,1,.25.91,1.73,1.73,0,0,1-.25-.91l-.08-.1c-.9-.61-1.8-1.24-2.72-1.84a33.41,33.41,0,0,0-3.27,1.86c.09.07.29.42.13.53-.13-.21-.19-.51-.36-.65-.82.31-1.16,1-1.74,1.58C57.66,79,57.46,79,57.51,79.42Zm3.58,2.5A7.9,7.9,0,0,1,60,79,26,26,0,0,0,61.09,81.92ZM60,79a2.48,2.48,0,0,1-.23-.74C59.78,78.17,60,78.9,60,79Z"/><path class="cls-2" d="M52.86,84.31l.06,0h0A.05.05,0,0,0,52.86,84.31Z"/><path class="cls-2" d="M59,87.4c-.21-.16-.4-.36-.21-.29,0-.14-.1-.17-.24-.14a7.06,7.06,0,0,0-2.29-2.53c-.31,1.6-1.08,2.78-1,4.69-.36.21-.34.49-.31.94l.7.29A8.52,8.52,0,0,0,59,87.4Z"/><path class="cls-2" d="M86.85,65.57l.12.14c0-.08,0-.14-.07-.2Z"/><path class="cls-2" d="M58.73,76.52c.26-.08,0-.37-.06-.52s-.15,0-.3-.13a.76.76,0,0,0-.08-.11l-.22.81a1.59,1.59,0,0,1,.49-.34C58.36,76.49,58.77,76.24,58.73,76.52Z"/><path class="cls-2" d="M56.46,81.54c.1-.1.19-.2.29-.32l-.56,2c.27.37.72.75.61,1,.8.74,1.52,1.82,2.47,2.72a11.21,11.21,0,0,0,1.23-2.82l.36-1.29a19.51,19.51,0,0,1-1.44-1.43l0-.05,0,.05s0,0,0-.05c-.78-.66-1.52-1.37-2.31-2C56.93,80.11,56.69,80.83,56.46,81.54Z"/><path class="cls-2" d="M56.07,84.69a17.65,17.65,0,0,0-.63,1.86A5,5,0,0,0,56.07,84.69Z"/><path class="cls-2" d="M55.39,82.55s0,0,0,0h0S55.4,82.55,55.39,82.55Z"/><path class="cls-2" d="M122.15,76.09c.07.19.22-.22.35,0a2,2,0,0,0-.45.42,10.47,10.47,0,0,1,3,.09,7.33,7.33,0,0,0,1.31-3.78,4.17,4.17,0,0,0-1.48-2.9C122.84,71,122.91,73.9,122.15,76.09Z"/><path class="cls-2" d="M55.53,82.49c.22-.21.45-.44.68-.68a1.67,1.67,0,0,0,.15-1.23C56.18,81.25,55.33,81.72,55.53,82.49Z"/><path class="cls-2" d="M55.28,86.5c.15-.64.92-1.76.65-2.35l-.62,2.18A1.55,1.55,0,0,1,55.28,86.5Z"/><path class="cls-2" d="M83.08,75.89q.49-.52,1-1.14A3.9,3.9,0,0,0,86.82,78a4.23,4.23,0,0,0,1-1.12c0,.27-.29.33-.28.63.21-.06.59-.91.27-.7.64-1.27,1.33-2.11,1.95-3.42a24.57,24.57,0,0,0-5.17-2.06c.05.29-.22.29-.14.61a3.32,3.32,0,0,0-.45.88v0l0,0c-.17.52-.28,1.09-.44,1.63S83.24,75.43,83.08,75.89Z"/><path class="cls-2" d="M74,76.73c-.57,2,.56,3.84,2.19,3.55h0a1.58,1.58,0,0,0,.19-.54c-.14-.18-.06,0-.12-.37-.12-.89-.68-2.28-.76-2.81,0-.32.05-.65,0-1-.07-1-.32-1.9-.45-2.7Z"/><path class="cls-2" d="M52.37,84.44l.14,0c-.5-.19-1-.36-1.54-.52A1.3,1.3,0,0,0,52.37,84.44Z"/><path class="cls-2" d="M71.14,76.94a18.45,18.45,0,0,0,2.18-4.8c.05-.16.08-.31.12-.47-1.1,0-2.33.2-3.71.23A23.47,23.47,0,0,0,71.14,76.94Z"/><path class="cls-2" d="M80.28,75.05c-1.07.36-1.07-.55-.44-3,0,0,0,0,0,0l.34-1.16c-1.38.11-2.72.41-4,.61a42.41,42.41,0,0,1-.35,4.26c0,.07.12.23.11.29s-.18.12-.19.17c-.25,1.26.58,2.67,1,4.08.85-.16,2.64-.8,5.16-3.18a3.27,3.27,0,0,0,.1-.81c0-.34-.13-.68-.12-1a4.69,4.69,0,0,1,.16-1A13.55,13.55,0,0,1,80.28,75.05Z"/><path class="cls-2" d="M73.61,70.89c0-.11,0-.22.06-.32l-.32,0a1.43,1.43,0,0,1,.34-.09.3.3,0,0,0,0-.1l0,0a2,2,0,0,1,1.12-.68l.66-.11c0-.73-.18-1.61-.31-2.4a12.67,12.67,0,0,0-.14-1.81.13.13,0,0,0,0,0l-.06.17c-.38,1.19-.77,2.4-1.16,3.6A6.33,6.33,0,0,0,73,65.34l0,0a33.59,33.59,0,0,0,.36,5.49A1.54,1.54,0,0,0,73.61,70.89Z"/><path class="cls-2" d="M87.34,78.14l1.06-1c0-.09.1-.16-.09-.14a7.59,7.59,0,0,1-1.25,1.07A2.3,2.3,0,0,0,87.34,78.14Z"/><path class="cls-2" d="M75.16,72.57a26.77,26.77,0,0,0,.58,3.07,34.61,34.61,0,0,1,.39-4c-.17-.12-.12.53-.28.63-.06-.27.08-.37.06-.61a3.39,3.39,0,0,1-.61.4Z"/><path class="cls-2" d="M89,78.1a9.55,9.55,0,0,0,4-1.83,12,12,0,0,0-1.35-1.5c-1,0-1.68.85-2.34.65-.21.74-.59,1.33-.83,2-.32.22-.63.46-.94.7A5.54,5.54,0,0,0,89,78.1Z"/><path class="cls-2" d="M82.09,76.9c.17-.16.34-.33.52-.52.37-1.12.77-2.22,1.16-3.33a14.81,14.81,0,0,1-1.45,1C82.21,75,82.13,75.93,82.09,76.9Z"/><path class="cls-2" d="M93.12,76.15l.12-.09c-.79-1.4-1.86-2.44-2.71-3.77,0,.39.12.67.08,1.28A25.51,25.51,0,0,1,93.12,76.15Z"/><path class="cls-2" d="M57.28,78.54l-.29.24.17.06A.59.59,0,0,0,57.28,78.54Z"/><path class="cls-2" d="M84.38,70.56c0,.11-.06.21-.08.31.81.2,1.65.5,2.44.67A10.44,10.44,0,0,0,84.38,70.56Z"/><path class="cls-2" d="M85.36,70.75c-.23-.14-.6-.42-.94-.35,0,0,0,.06,0,.09C84.74,70.58,85.15,70.81,85.36,70.75Z"/><path class="cls-2" d="M84.22,71.2A11,11,0,0,0,84,72.3l.38-1.08Z"/><path class="cls-2" d="M84.76,69.38l0,0,.07,0Z"/><path class="cls-2" d="M84.85,69.35a.55.55,0,0,0,.18-.16C84.88,69.17,84.9,69.29,84.85,69.35Z"/><path class="cls-2" d="M84.85,69.35l0,0Z"/><path class="cls-2" d="M85,69.57c-.2.25-.18,0-.34.11.14,0,0,.42-.09.46a.52.52,0,0,0,0-.3l-.12.33a.69.69,0,0,0,.46.16A2.65,2.65,0,0,1,85,69.57Z"/><path class="cls-2" d="M75.74,69.51l.31-.05-.23.79c0,.15,0,.31.05.46.29.13.83-.06,1.08.13a3.3,3.3,0,0,1-1,0c0,.19.16.22,0,.38,1.36-.25,2.76-.82,4.39-1.09l.41-1.41h0a39.88,39.88,0,0,0-5.58-3C75.29,66.67,75.56,68.13,75.74,69.51Z"/><path class="cls-2" d="M80.35,70.29a10.41,10.41,0,0,0-2.66.73,12.82,12.82,0,0,0,2.59-.49Z"/><path class="cls-2" d="M86.78,65.68a15.33,15.33,0,0,0-1.5,2.5v.09c.65-.67,1-1.61,1.73-2.19C86.94,65.94,86.86,65.81,86.78,65.68Z"/><path class="cls-2" d="M53.71,70.81c-.12.29-.05.36.07.67.73.37,1.45.61,2.13,1a5.76,5.76,0,0,1,.66.56c0-.12.06-.24.1-.36a5.05,5.05,0,0,0-1.28-5.34c-.69-.2-1.42-.64-1.65.1,0-.08,0-.17-.16-.13,0,1.32,0,2.9,0,3.63C53.58,70.88,53.58,70.79,53.71,70.81Zm.35,0c.25.15-.06.36,0,.53C53.9,71.27,54.05,70.92,54.06,70.78Z"/><path class="cls-2" d="M86,64.49s0,0,0,0a1.31,1.31,0,0,0-.36-.47c-.13.18.1.66-.2.7,0,0,.12-.38,0-.38a7.06,7.06,0,0,0-.12,1.7A7.13,7.13,0,0,0,86,64.49Z"/><path class="cls-2" d="M59.19,76.18a2,2,0,0,0-.63-1.35l-.18.63a7.69,7.69,0,0,0,.68.81C59.07,76.21,59.11,76.18,59.19,76.18Z"/><path class="cls-2" d="M94.6,62.12a2.44,2.44,0,0,0,1.09-1A11.54,11.54,0,0,0,94.6,62.12Z"/><path class="cls-2" d="M100,70.14c.45.17.78.49,1.22.66C101,70.36,100.24,69.47,100,70.14Z"/><path class="cls-2" d="M92,64.68A9.56,9.56,0,0,1,93,63.46C92.64,63.78,91.87,64.14,92,64.68Z"/><path class="cls-2" d="M97.51,68c-.88-.33-2-1.24-2.65-1.3C95.76,67.06,96.5,68.08,97.51,68Z"/><path class="cls-2" d="M63.11,73.74c-.21.2-.59.24-.8.44,0,.14.13.43,0,.46-.09-.15-.16-.31-.33-.35a2.66,2.66,0,0,0-.18.84c.34.17.36-.19.61-.27a1.85,1.85,0,0,0,1,.44C63.2,74.68,63.52,74.17,63.11,73.74Z"/><path class="cls-2" d="M85.77,64.06c.18,0,.38-.54.08-.53C86,63.81,85.63,63.73,85.77,64.06Z"/><path class="cls-2" d="M61.91,73.84c.38.41.75-.13,1.26-.18a8.76,8.76,0,0,0-1.33-1.56c.08.78,0,1.36.43,1.78C62.12,73.85,62,73.52,61.91,73.84Z"/><path class="cls-2" d="M87.5,65.35a9.73,9.73,0,0,1,2.89-.84C89.15,64.41,87.81,64.19,87.5,65.35Z"/><path class="cls-2" d="M91.19,64.6c-1.54.26-3.1.49-3.9,1.38A38.81,38.81,0,0,1,91.19,64.6Z"/><path class="cls-2" d="M85.43,71.36c.16,0,.1.2.24.2.88.11,2.15.94,3,1a8,8,0,0,0-3.21-1.24S85.43,71.27,85.43,71.36Z"/><path class="cls-2" d="M90.46,73.43c0-.12,0-.25,0-.38s-.15.1-.27.1C90.15,73.37,90.36,73.33,90.46,73.43Z"/><path class="cls-2" d="M89.49,75a6.63,6.63,0,0,0,1.41-.8C90.4,73.91,89.77,74.57,89.49,75Z"/><path class="cls-2" d="M90.26,73c.08-.56.09-1.34-.19-1.57C90.24,72,90,72.6,90.26,73Z"/><path class="cls-2" d="M90.92,74.3a12.36,12.36,0,0,0-1.27.79c.47-.23,1.2-.22,1.58-.51C91.05,74.58,91.1,74.29,90.92,74.3Z"/><path class="cls-2" d="M89.81,73.66c-.12.4-.87,1-.5.93-.09.25-.33.38-.43.64A2.6,2.6,0,0,0,89.81,73.66Z"/><path class="cls-2" d="M85.81,63.23c0,.19-.17.24-.15.46C85.84,63.69,86,63.29,85.81,63.23Z"/><path class="cls-2" d="M87,66.23c-.35.6-1.07,1.22-1.22,1.77C86.05,67.37,86.93,66.88,87,66.23Z"/><path class="cls-2" d="M90,74c.06-.2.32-.21.45-.35-.12-.07-.19-.2-.32-.27C90.46,73.68,89.85,73.84,90,74Z"/><path class="cls-2" d="M100.87,69.84c-.1.06-.38-.06-.35.11.25-.07.41.44.53.25C100.94,70.15,100.92,70,100.87,69.84Z"/><path class="cls-2" d="M90.22,75c-.25,0-.55.07-.61.27C89.79,75.2,90.15,75.25,90.22,75Z"/><path class="cls-2" d="M40.82,81.18a2,2,0,0,1,.6-.34c0-.09-.17-.2-.21-.12s0,0,0,.06,0,0,0-.06c.09-.48,1.22-.85,1.46-.82-.56-.65-1.21-1-1.53-1.63a11.91,11.91,0,0,0-.32,2.53l.23-.08a1.26,1.26,0,0,1-.24.22C40.81,81,40.82,81.1,40.82,81.18Z"/><path class="cls-2" d="M60.28,68.71l-.14.49a2.15,2.15,0,0,1,.27.45A2.4,2.4,0,0,0,60.28,68.71Z"/><path class="cls-2" d="M56.27,79.75a9.46,9.46,0,0,1-.6,1.57C56,80.93,56.66,80.37,56.27,79.75Z"/><path class="cls-2" d="M61.2,72.09l-.35,0c0,.18.14.15.11.37.31-.09.24-.09.11-.31C61.16,72.18,61.23,72.27,61.2,72.09Z"/><path class="cls-2" d="M60.31,68.62c.37,1.21.78,2.35,1.74,2.78,0,.09-.12.08-.21.1.25.9,1,1,1.22,1.79.18-.35.47-1,.79-1a6.62,6.62,0,0,1,1-1.83c-.45-1.83-1-3.67-1.53-5.49l-2.8.47a.31.31,0,0,0-.16.46c.17.21.54.26.38,1.1Z"/><path class="cls-2" d="M54.33,66.84a1.43,1.43,0,0,0,.58.22A2.39,2.39,0,0,0,54.33,66.84Z"/><path class="cls-2" d="M61,75.27c0,.25-.2.28-.15.54C61,75.79,61.26,75.23,61,75.27Z"/><path class="cls-2" d="M59.93,76.42c0-.11.36-.46,0-.46C60,76.15,59.72,76.33,59.93,76.42Z"/><path class="cls-2" d="M60,76.65a3,3,0,0,0,1-.54A1.74,1.74,0,0,0,60,76.65Z"/><path class="cls-2" d="M60.6,76c0-.26.19-.28.15-.54C60.58,75.48,60.47,75.92,60.6,76Z"/><path class="cls-2" d="M80.16,63c-.11-.38-.63-.21-.9-.39C79.4,63,79.87,62.87,80.16,63Z"/><path class="cls-2" d="M63.79,66.27C64,67.5,64.64,69,65,70.35l0-.06a2,2,0,0,0-.23-.93c-.1-.31,0-.66,0-.15a1.58,1.58,0,0,1,.27,1,3.18,3.18,0,0,1,1.65-1c1-.16,1.59.79,1.37,2.21a1.58,1.58,0,0,1,.71.24H68.1a1.74,1.74,0,0,1,0,.22,3.69,3.69,0,0,1,1.52-.13c.65-.52,1.67-.7,2.36-1.18,0-.19-.22-.63.06-.61.09.28-.08.33,0,.61.19.11.53-.16.79,0,.09-1.27-.3-3.51-.09-4.9.14,1.34-.07,3.63.39,5-.07-1.79-.29-3.52-.2-5.27-.9.15-1.31.73-1.93,1.14.24,1.4,1,2.29,1.37,3.74A11.67,11.67,0,0,1,70.93,67c-.87,1-.42,3.08-1,4.32a20.41,20.41,0,0,0,.25-2.06c-.37.61-.23,1.68-.74,2.17.35-1.68,1-3.36,1.19-4.94a16.7,16.7,0,0,0-1.33-2.4,8.75,8.75,0,0,0-3.82,2.33c.25-.89-.24-1.71-1-1.59l-1,.18a4.84,4.84,0,0,1,.22,1.45C63.81,66.41,63.78,66.33,63.79,66.27Zm8,2.36a10.36,10.36,0,0,1,1,1.59A7,7,0,0,1,71.77,68.63Z"/><path class="cls-2" d="M44.93,85.6a7.68,7.68,0,0,0,3.63-1.85c-.39-.31-.86-.75-1.2-1s-.74-.37-1.07-.59a17,17,0,0,1-1.49-1.09c-.84-.14-1.21-1-2-.74-.15-.29.3,0,.25-.25-.21-.16-.51.18-.68.28.09.19.29-.17.44,0-.9.07-1.4.73-2,1.12C41,84.28,42.53,85.94,44.93,85.6Z"/><path class="cls-2" d="M78.82,59.82l-.76,2.63c.8,0,1.42.23,2.2.26a51.91,51.91,0,0,0,1.86,5.79A5.38,5.38,0,0,0,85,66.37a11,11,0,0,1,0-1.64c.07-.53.52-.92.34-1.39.08,0,.06.14.16.14,0-.41,0-.87.09-1.3h-.06l-3,.39,1-3.38a3.08,3.08,0,0,0-.61-3c0,.15-.1.28-.16.43A5.52,5.52,0,0,1,78.82,59.82Z"/><path class="cls-2" d="M81.75,68.56c-.08-.23.17-.16.09-.39-.27-.15-.15-.38-.28-.58C81.63,68.06,81.48,68.45,81.75,68.56Z"/><path class="cls-2" d="M62.49,75.15a.32.32,0,0,1-.22-.06c-.15.23-.46.32-.57.58A2.36,2.36,0,0,0,62.49,75.15Z"/><path class="cls-2" d="M81.16,68.67l.33,0c0-1.49-.8-3.41-1.24-5.47A8.43,8.43,0,0,1,78,62.51l-.21.73-.67.1a2.73,2.73,0,0,0-2,1.62c0,.16,0,.33,0,.51C77.23,66.45,79.38,67.62,81.16,68.67Z"/><path class="cls-2" d="M72.9,65.19A3.11,3.11,0,0,0,69.72,64l-.25.05c.51.82,1,1.64,1.39,2.35A6.53,6.53,0,0,1,72.9,65.19Z"/><path class="cls-2" d="M86.9,61.69c.07-.23-.09-.31-.27-.15a2.33,2.33,0,0,1-.76.57,4.91,4.91,0,0,0,.38,1.53C86.47,63,86.68,62.33,86.9,61.69Z"/><path class="cls-2" d="M115.16,78.49c0-.25.38-.2.37-.49C115.35,78.08,115,78.31,115.16,78.49Z"/><path class="cls-2" d="M123.15,63.37v.16c.06,0,.1,0,.14,0A1,1,0,0,0,123.15,63.37Z"/><path class="cls-2" d="M119.35,61.29c-1-.32-2.09-.58-3-.9.9.36,1.81.72,2.7,1.09A2.34,2.34,0,0,1,119.35,61.29Z"/><path class="cls-2" d="M41.45,78.11c.25,1,1.24,1.42,1.78,1.74-.13.14.37.51.47.34A6.57,6.57,0,0,0,41.45,78.11Z"/><path class="cls-2" d="M123.52,70.91a3.45,3.45,0,0,0,.84-.82c-.32,0-.39.33-.74.36C123.72,70.72,123.46,70.68,123.52,70.91Z"/><path class="cls-2" d="M53.34,67.14c0-.12-.07-.24-.11-.38l-.2,0h0A.49.49,0,0,0,53.34,67.14Z"/><path class="cls-2" d="M107.42,60.83a.28.28,0,0,0,.1-.09h-.13a5.19,5.19,0,0,1-.08.94C107.62,61.56,107.55,61.15,107.42,60.83Z"/><path class="cls-2" d="M107.8,61.63c-.31,2-1.29,3.44-2,5.15-.16-.14-.13,0-.27.1a48,48,0,0,0-2.79,4.91c0,.22-.06.43-.07.63,1.47-1.28,2-3.73,3-5.56-.73,2-1.47,4.35-3,5.84,0,1.56.54,2.6,2.28,2.61,3.75,0,7.19-4.53,9.45-8.12a7.24,7.24,0,0,0,3.69,2.5s3.66,1.27,3.4,3.08a2.94,2.94,0,0,1-2.31,2.67,2,2,0,0,1-2.33-2.15,2.84,2.84,0,0,1,.93-2.06c-2.73-2.55-7,.31-7,3.48a5.73,5.73,0,0,0,1.94,4.47,4.93,4.93,0,0,0,1.46-1.82c2-.49,4-.64,6.09-1a.66.66,0,0,0,.09-.46,1.07,1.07,0,0,0,.77-.75c-.31-.13-.24.64-.72.58,1.54-2,2.19-4.6,3-7.08A27.29,27.29,0,0,0,119,66.16s-2.55-1.1-.83-3.84a3,3,0,0,1,.3-.37c.46.07,1.19.48,1.34,2,.24,2.32,2.42,3.33,4.53,2.38.11-.24.24-.48.36-.72l0,.22a2.71,2.71,0,0,0-.2.42.54.54,0,0,1,.11,0c2.19-1.2,3-7.27-2.6-9.15-2.79-1-5.52.52-7.16,2.76.73.22,1.45.46,2.16.69s1.59.51,2.38.75a2.3,2.3,0,0,1,3.15.56,2.78,2.78,0,0,1,.54,1.45c.45.45.89.94,1.34,1.39-.47-.29-.91-.63-1.36-.93A1.94,1.94,0,0,1,122,65.16c-.79.3-1.69,0-1.83-1.73a2.39,2.39,0,0,0-.62-1.55c-.81-.35-1.62-.71-2.44-1s-1.56-.59-2.35-.86a6.81,6.81,0,0,0-1.2,5.67,14.28,14.28,0,0,1-4.36,5.42c-2.29,1.54,1.56-5.09,1.56-5s.41-.54.86-1.26h0c.92-1.48,2-3.77-.16-4l-3.76-.05c0,.31-.1.6-.14.84S107.68,61.47,107.8,61.63Z"/><path class="cls-2" d="M52.41,70.77c.21-.09.63.27.9.38.18-1-.05-2.68.17-3.42-.19-.28-.38-.57-.58-.85a.3.3,0,0,0,0,.35,2.29,2.29,0,0,1,.41,1.21,3.06,3.06,0,0,0-3.16-1.13,7,7,0,0,0-2.6,1.14c3.09,1.41,5.4,2.85,8.64,4.51A27.77,27.77,0,0,0,52.41,70.77Z"/><path class="cls-2" d="M61.48,71.45a6.62,6.62,0,0,0-1.36-1.85,11,11,0,0,0,.52,2C60.8,71.67,61.08,71.38,61.48,71.45Z"/><path class="cls-2" d="M123.67,69.08c0,.4-.07.24-.27.18.25.34-.17.35-.21.62C123.45,69.74,123.92,69.44,123.67,69.08Z"/><path class="cls-2" d="M118.05,77c.22-.1.19.1.3.13.11-.18.55-.06.69-.21.25,0,.39-.15.07-.08S118.4,76.85,118.05,77Z"/><path class="cls-2" d="M116,78c.14-.24.41-.36.49-.64-.29.07-.38.33-.66.43.1,0,.18,0,.16.14S115.88,78,116,78Z"/><path class="cls-2" d="M117.19,77.56a2.16,2.16,0,0,0,.71-.59,2.05,2.05,0,0,0-1.37.42c.41,0-.31.36-.1.39.3-.21.71-.69,1.07-.62C117.48,77.33,116.94,77.39,117.19,77.56Z"/><path class="cls-2" d="M61.21,75.71c.15-.34.23-.74.36-1.09-.3,0-.19.77-.45.41C61.37,75.28,61,75.57,61.21,75.71Z"/><path class="cls-2" d="M88.52,75.78c.28-.09.54-.2.59-.5A1.52,1.52,0,0,0,88.52,75.78Z"/><path class="cls-2" d="M120.47,76.38c.23.32.77.2,1.18.28,1-1.44,1.09-4.3,1.68-5.66-.78,1.13-1.41,2.73-2.06,3.73.24.18-.22.34-.06.68C121,75.76,120.56,75.93,120.47,76.38Z"/><path class="cls-2" d="M120.08,76.72c-.07-.29-.78-.09-.93,0S119.82,76.71,120.08,76.72Z"/><path class="cls-2" d="M122.8,71.42c-.2.09-.42.82-.34.71S123,71.62,122.8,71.42Z"/><path class="cls-2" d="M123.48,70.54c-.16-.43-.44.23-.37-.12-.33,0,0,.23-.24.4.18.05.28-.29.35-.11-.16.16-.44.2-.44.49C123.19,71,123.27,70.53,123.48,70.54Z"/><path class="cls-2" d="M41.33,77.52a.65.65,0,0,1,0,.13c.36.33.71.67,1.08,1s.67.35.92.6.21.43.36.58a19,19,0,0,0,1.44,1.31c.72.58,1.62.79,2.45,1.39.41.3.83.65,1.27,1a14.64,14.64,0,0,0,1.83-2,4.11,4.11,0,0,0,.23,2.16c.71.24,1.47.62,2.06.41l.19.09a8.31,8.31,0,0,0,2-1.36.85.85,0,0,0-.1-.19,10.45,10.45,0,0,0,1.12-3.41l-.17,0h0c-.51,1-1.19,2-.89,3.21a8.17,8.17,0,0,0-2.35-2.37c.75.52,1.62.89,2.07,1.8a7.82,7.82,0,0,1,1-2.62c-.49,0-.7-.27-.62-1-1.33-.36-2.82.6-3.94.78a9.19,9.19,0,0,1,3.94-1c0-.18-.33-.66-.41-1a2.17,2.17,0,0,1,.47.8,3.38,3.38,0,0,1,.09-.41l.09-.32a2.23,2.23,0,0,1-.73-.21c.21,0,.48,0,.77.07.32-1.16.65-2.31,1-3.47a5.45,5.45,0,0,0-1.41-1c-.35-.19-.76-.24-1.12-.44a73.06,73.06,0,0,0-6.61-3.41A17.55,17.55,0,0,0,41.33,77.52Zm10.28.88c.34-.33.5-.83,1-1.06C52.22,77.67,52.12,78.21,51.61,78.4ZM50,71.81c1.3-.22,1.92,1.16,1.36,3.1,0,.08,0,.16-.07.25.58.29,1.13.64,1.71.93a5.54,5.54,0,0,1-1.74-.84,6.45,6.45,0,0,1-2.08,3,2.19,2.19,0,0,0,1.91.35c.81-.45,1.29-2.36,2.28-2.46.45,0,.77.39,1.33.42-.5.41-.67-.32-1.17-.28s-.48.59-.9.9c-.1.08-.27,0-.34.11A9.64,9.64,0,0,0,51.17,79c-.09-.08-.15-.2-.36-.12.31.54,1,.56,1.4,1a10.82,10.82,0,0,0-2.72-1.21,4.26,4.26,0,0,0-.37-.34,2.54,2.54,0,0,1-1.07.48c-1.3.21-1.91-1.17-1.36-3.08,0,0,0-.07,0-.12-.34-.59-.66-1.17-1-1.7a7.6,7.6,0,0,1,1.07,1.47C47.41,73.59,48.81,72,50,71.81Z"/><path class="cls-2" d="M61.77,73.85c-.07-.29.1-1.57-.16-1.95.08.3-.26-.06-.34.17.1.58,0,1,.12,1.58.38-.23-.11-1.2.17-1.53C61.66,72.69,61.41,73.49,61.77,73.85Z"/><path class="cls-2" d="M61.72,71.66c-.31-.09-1.1.07-.89.3C61,71.77,61.59,71.9,61.72,71.66Z"/><path class="cls-2" d="M92,64.91c.82-.3,1.41-1.66,2.18-2-.29.46-.73.81-1.12,1.3s-.46.82-.77.75c1.52,1.44,3.8,1.9,5.44,3.18a1.34,1.34,0,0,0,1.12-.27,9,9,0,0,0,.26-1.27,30.75,30.75,0,0,0-4.9-3.47,23.22,23.22,0,0,1,4.92,3.29c.31-2.8-.78-4.9-2.86-5.57C94.85,62.2,93.05,63.23,92,64.91Z"/><path class="cls-2" d="M102.37,62.08c.25.13-.19.76-.39.94-.42,1-1,1.93-1.42,2.95a1.94,1.94,0,0,0,1.78.9h0a8.92,8.92,0,0,1-1.65,2.22c.11.3.22.61.31.88a3.35,3.35,0,0,0,.5.93,24.35,24.35,0,0,0,2.66-4.28l.3,0a32.57,32.57,0,0,0-1.37,3.76,21.94,21.94,0,0,0,2.09-3.59c.23.07,0,.26,0,.31a4.38,4.38,0,0,0,1.21-2.37c.25.26,0-.47.46-.42,0-.17-.21-.16-.22,0-.1-.31.34-.74.29-1.24a16,16,0,0,0-1.57,3.62c.07-1.51,1-2.84,1.65-4.07a6.17,6.17,0,0,0-.38-1.88l-3.68,0a1.6,1.6,0,0,1-.45-.6c-.07-.17-.29-.14-.37.06s-.13.36-.21.54c-.49,1.25-1,2.52-1.49,3.79a1.62,1.62,0,0,0,.08,1.37C101.05,64.67,101.83,63.33,102.37,62.08Z"/><path class="cls-2" d="M88.14,76.72c.37-.14.76-.28.76-.74a1.2,1.2,0,0,0-.6.35c.26.1.27-.34.42-.1C88.6,76.45,88.22,76.46,88.14,76.72Z"/><path class="cls-2" d="M88.44,64.3c1.07-.22,2.53.34,3.36.09,1.26-1.38,2.86-2.29,4-3.66a5.32,5.32,0,0,0-1.56-.07c-2.54.23-5.25,2.11-7.26,4.75l0,.14C87.61,65.24,87.63,64.46,88.44,64.3Z"/><path class="cls-2" d="M88,77c.23-.1.54-.11.6-.35C88.35,76.8,88,76.82,88,77Z"/><path class="cls-2" d="M123.93,69.07a8.05,8.05,0,0,1-.27,1.15,2.22,2.22,0,0,0,1-.53C124.43,69.48,124.19,69.27,123.93,69.07Z"/><path class="cls-2" d="M107,64.2c.16-.7.75-1.85.35-2.38a13.21,13.21,0,0,1-.45,2.16C107,63.73,106.78,64.23,107,64.2Z"/><path class="cls-2" d="M107.19,60.73h-.28c0,.17,0,.35.06.52C107.05,61.08,107.12,60.91,107.19,60.73Z"/><path class="cls-4" d="M65.94,52.15c-6.21-5.9-10.77-5.65-10.77-5.65-3.81.27-5.68,3.34-5.26,7.12A7.23,7.23,0,0,0,57.57,60c2.31-.17,3.93-1.65,5.3-3.25,2-2.38,9.45.67,13.81.27s4.26-6.16,4.26-6.16C75,58.06,65.94,52.15,65.94,52.15Zm-6,3.37a4.27,4.27,0,0,1-6-6.07c1.64-1.65,2.82-1.22,3.72,1.75C58.28,53.46,61.54,53.87,59.9,55.52Z"/><path class="cls-4" d="M72.6,34.49a5.85,5.85,0,0,1,.75-1.79c-.34-.71-.88-1.93-.65-2.37s1.6-.18,2.52,0a16.42,16.42,0,0,1,3.19-2.42c-2.34-2.26-6.78-5.11-10.43-5.43-.87-.66-2.26-1.43-2.49.13v0l.21.31c.23.38.4.78.12.8-.52.06-1.18-1.38-3-1.48a5.3,5.3,0,0,0-3.11.84c1.46.79,1.72,1.57,1.72,1.57a12.35,12.35,0,0,0-5.29-.59c-3.15,1-7.64,3.41-8.9,9a9.41,9.41,0,0,0,.78,2.2c.73,1.39,5.83,8.19-.17,7.15,0,0-2,2.79.33,7.24a9.61,9.61,0,0,1,4.05-5.11,1.43,1.43,0,0,1-.65-.54L51.06,44a12.78,12.78,0,0,1-2.85.77A19.66,19.66,0,0,0,51,43.42v-.11a1.58,1.58,0,0,1-.52-.88l.94.76c.44-.26.91-.55,1.4-.88v-.12a2,2,0,0,1-.65-1.08l1.11.88c.41-.28.82-.59,1.24-.92l0-.41a2.87,2.87,0,0,1-.92-1.56l1.68,1.35c.44-.38.87-.78,1.31-1.22l-.12-.42a2.83,2.83,0,0,1-1.23-1.32l1.95,1,0,.12.6-.68a67,67,0,0,1-4.41-6.54,11,11,0,0,1-1-2.34c1.46.89,5.4,1.22,8.64,1.42,0-.3,0-.58,0-.85l-.63-.49a3.28,3.28,0,0,1-2-.38l2.45-.42.23.19a3.33,3.33,0,0,1,.57-1.43L61,26.63a3,3,0,0,1-1.87-.35l2.28-.4.58.48.36-.3h0a13.32,13.32,0,0,1,1.91-1.48A6.43,6.43,0,0,0,63,26.15l1.66.25a3.14,3.14,0,0,1-1.88.39l-.2.16a6.37,6.37,0,0,0-.48,1.58l2.12.32a3.34,3.34,0,0,1-2,.41L62,29.4a6.83,6.83,0,0,0,.06,1.09c1.31.07,2.41.14,3.07.23,2.38.3,6.52,6.86,6.52,6.86a5.32,5.32,0,0,0-3.64.08c-1.68.79-6.38,2.58-8.33,1.88a3.42,3.42,0,0,1-1.1-.8c-.19.2-.37.41-.56.6l1.31,1.3a2.83,2.83,0,0,1-1.65-.74h-.25a18.28,18.28,0,0,1-1.64,1.4l1.12,1.77A2.81,2.81,0,0,1,55.49,42L55,41.92c-.41.28-.81.53-1.2.76l.77,1.21a2,2,0,0,1-1-.75l-.45-.07c-.46.24-.89.45-1.31.63l.56.87c2.13-1.08,5.23-1.18,9.66,1.58v0c-1.33-1.51-.69-3.27.1-3.52,2.45-.2,8.72-.17,12.42-7.05,2.08-3.88,4.33-4.77,5.7-5.22h0s2-.76,2.57-.93c0,0-.72,1.09-1.22,1.73L82.38,33c3.27-2.57,2.26-5,2.26-5C77.6,27.61,72.6,34.49,72.6,34.49ZM55.2,37.71a9,9,0,0,1-3.37.84c-1.75-.07-4.79-10.07-1.61-7.92C50.22,30.63,52.54,35.75,55.2,37.71Z"/><path class="cls-2" d="M85.82,26.73c-1.82-1.84-4.15,1.7-7-1C72.8,20.08,68.69,21,68.69,21c-3.61-2.61-4-.63-4-.63-2.78-1.05-6.43.88-6.43.88-11.89.94-13.52,12.38-13.52,12.38-1,5.95.76,8.44.76,8.44-2.43,5.78,2.13,11.25,2.13,11.25s2,14.25,15,6.63a10,10,0,0,1,6.81-1.65c6.53,1.21,9.48.32,9.48.32,5.19-2,4-11.49,4-11.49,4.48-5.54.5-11.53.5-11.53l.21-.21L85,36.9a6,6,0,0,0-.29-2.8C86.84,31.08,87.37,28.28,85.82,26.73ZM76.68,57c-4.36.4-11.78-2.65-13.81-.27-1.37,1.59-3,3.08-5.3,3.25a7.23,7.23,0,0,1-7.66-6.36c-.42-3.78,1.45-6.85,5.26-7.12,0,0,4.56-.25,10.77,5.65,0,0,9.09,5.91,15-1.31C80.94,50.84,81,56.6,76.68,57ZM63.34,44.31l0-.05a14.13,14.13,0,0,0,2.55-.41A4.15,4.15,0,0,1,66,46.08Zm3.72-.55,0-.06a15.22,15.22,0,0,0,2.4-1,5.39,5.39,0,0,1,.26,2.85Zm2,7.33a14,14,0,0,1-1.36-.78l1.14-1.12Zm1.22-8.83a17.09,17.09,0,0,0,2.08-1.7c.4,1.09.83,2.53.57,3.23Zm2.55,10a9.46,9.46,0,0,1-1.93-.41c.64-.8,1.32-1.74,1.32-1.74Zm5.57-4.33,1.79,1.29a10.73,10.73,0,0,1-1.77,1.55C78.5,49.67,78.44,47.92,78.44,47.92Zm.18-9.24-2.88-2.39S77,34.05,77.57,33.9C78,35,78.94,37.81,78.62,38.68Zm-.38-5.47a7.27,7.27,0,0,1,2.19-1.41,12.27,12.27,0,0,1,0,4.29Zm-2.12,8.93-2.83-2.49a19.56,19.56,0,0,0,1.83-2.38C75.56,38.34,76.43,41.28,76.12,42.14Zm1,9.41a7.71,7.71,0,0,1-2.24.66c.49-1,1.13-2.6,1.13-2.6ZM82.38,33l-.83-1.89c.51-.64,1.22-1.73,1.22-1.73-.54.17-2.57.93-2.57.93h0c-1.37.45-3.61,1.34-5.69,5.22-3.7,6.88-10,6.85-12.42,7.05-.79.25-1.43,2-.11,3.52v0c-4.43-2.76-7.53-2.66-9.66-1.58l.08.11-.16-.06a9.59,9.59,0,0,0-4.06,5.11c-2.36-4.45-.33-7.24-.33-7.24,6,1,.9-5.76.18-7.15a9,9,0,0,1-.78-2.2c1.25-5.61,5.74-8,8.9-9a12.31,12.31,0,0,1,5.28.59s-.26-.78-1.71-1.57a5.3,5.3,0,0,1,3.11-.84c1.82.1,2.48,1.54,3,1.48.29,0,.12-.42-.12-.8-.07-.11-.14-.22-.21-.31v0c.24-1.56,1.62-.79,2.49-.13,3.66.32,8.1,3.17,10.43,5.43a16.42,16.42,0,0,0-3.19,2.42c-.92-.21-2.31-.44-2.52,0S73,32,73.35,32.7a5.75,5.75,0,0,0-.76,1.79s5-6.88,12-6.43C84.64,28.06,85.65,30.45,82.38,33Z"/><path class="cls-1" d="M77.06,28.82c.41-.3.86-.59,1.35-.89-2.34-2.25-6.78-5.11-10.43-5.42C68,22.51,75.75,26.9,77.06,28.82Z"/><path class="cls-1" d="M80.21,30.33c.08,0,2-.77,2.57-.93,0,0-.72,1.09-1.22,1.73L82.38,33c3.27-2.57,2.26-5,2.26-5a10.91,10.91,0,0,0-3,.23C81.74,28.86,81.57,29.7,80.21,30.33Z"/><path class="cls-5" d="M49.14,30.44a.6.6,0,0,0-.08.08A.6.6,0,0,0,49.14,30.44Z"/><path class="cls-1" d="M49.14,30.44c2.51-2.57,6.84-5.91,12.29-5.74a12.13,12.13,0,0,0-5.28-.58c-3,1-7.23,3.18-8.7,8.24.39-.49.93-1.13,1.61-1.84A.6.6,0,0,1,49.14,30.44Z"/><path class="cls-1" d="M59.72,23.13c1.45.79,1.71,1.57,1.71,1.57l-.3-1.36L64,22.58a3.29,3.29,0,0,0-1.17-.29A5.3,5.3,0,0,0,59.72,23.13Z"/><path class="cls-1" d="M80.94,50.84s-3.41,6.63-9.11,4.66-9.19-1.63-10.2.54a4.42,4.42,0,0,1-2.53,2.57c-7.5,2.13-8.38-7-8.49-9.3a4.37,4.37,0,0,0-.23.49,7,7,0,0,0-.52,2.44,9.29,9.29,0,0,0,0,1.38A7.23,7.23,0,0,0,57.57,60c2.31-.17,3.92-1.66,5.29-3.25,2-2.38,9.46.66,13.82.26S80.94,50.84,80.94,50.84Z"/><path class="cls-4" d="M73.29,39.65l2.83,2.49c.31-.86-.56-3.8-1-4.87A19.56,19.56,0,0,1,73.29,39.65Z"/><path class="cls-4" d="M75.74,36.29l2.88,2.39c.32-.87-.61-3.71-1.05-4.78C77,34.05,75.74,36.29,75.74,36.29Z"/><path class="cls-4" d="M69.49,42.68a15.22,15.22,0,0,1-2.4,1l0,.06,2.69,1.77A5.39,5.39,0,0,0,69.49,42.68Z"/><path class="cls-4" d="M72.4,40.56a18.08,18.08,0,0,1-2.08,1.7L73,43.79C73.23,43.09,72.8,41.65,72.4,40.56Z"/><path class="cls-4" d="M80.43,31.8a7.27,7.27,0,0,0-2.19,1.41l2.23,2.88A12.27,12.27,0,0,0,80.43,31.8Z"/><path class="cls-4" d="M65.92,43.85a14.36,14.36,0,0,1-2.56.41l0,.05L66,46.08A4.13,4.13,0,0,0,65.92,43.85Z"/><path class="cls-6" d="M72.87,52.25l-.61-2.15s-.68.94-1.32,1.74A9.46,9.46,0,0,0,72.87,52.25Z"/><path class="cls-6" d="M80.23,49.21l-1.79-1.29s.06,1.75,0,2.84A10.73,10.73,0,0,0,80.23,49.21Z"/><path class="cls-6" d="M74.86,52.21a7.71,7.71,0,0,0,2.24-.66L76,49.61S75.35,51.23,74.86,52.21Z"/><path class="cls-6" d="M67.74,50.31a12.21,12.21,0,0,0,1.36.78l-.22-1.9Z"/><path class="cls-2" d="M51.83,38.55a9,9,0,0,0,3.37-.84c-2.66-2-5-7.08-5-7.08C47,28.48,50.08,38.48,51.83,38.55Z"/><path class="cls-2" d="M57.6,51.2c-.9-3-2.08-3.4-3.72-1.75a4.27,4.27,0,0,0,6,6.07C61.54,53.87,58.28,53.46,57.6,51.2Z"/><path class="cls-2" d="M53.07,43.06l.45.07a2,2,0,0,0,1,.75l-.77-1.2c.39-.23.79-.49,1.21-.77l.51.08a2.81,2.81,0,0,0,1.44,1.08L55.8,41.31c.54-.42,1.09-.88,1.64-1.4h.26a2.79,2.79,0,0,0,1.64.74L58,39.34c.19-.2.38-.4.56-.61a3.27,3.27,0,0,0,1.1.8c1.94.71,6.65-1.09,8.34-1.88a5.34,5.34,0,0,1,3.63-.07S67.52,31,65.14,30.71c-.66-.09-1.76-.15-3.07-.22A6.89,6.89,0,0,1,62,29.4l.18-.14a3.36,3.36,0,0,0,2-.42l-2.12-.32a6.5,6.5,0,0,1,.48-1.58l.2-.16a3.06,3.06,0,0,0,1.88-.39L63,26.14a6.33,6.33,0,0,1,1.35-1.56,12.93,12.93,0,0,0-1.92,1.48h0l-.37.3-.57-.48-2.29.4a3,3,0,0,0,1.87.35l.54.42A3.46,3.46,0,0,0,61,28.48l-.23-.19-2.45.42a3.28,3.28,0,0,0,2,.38l.63.49c0,.27,0,.55,0,.85-3.24-.2-7.18-.53-8.63-1.42a10.8,10.8,0,0,0,1,2.34,68.22,68.22,0,0,0,4.41,6.54l-.6.68,0-.12-2-1a2.83,2.83,0,0,0,1.23,1.32l.12.42c-.43.44-.87.84-1.3,1.22L53.59,39.1a2.87,2.87,0,0,0,.92,1.56l0,.41c-.42.33-.83.64-1.23.92l-1.11-.88a2,2,0,0,0,.64,1.08v.12c-.49.33-1,.62-1.4.88l-.94-.76a1.58,1.58,0,0,0,.52.88v.11a20,20,0,0,1-2.84,1.33A12.64,12.64,0,0,0,51.05,44l.53.09a1.4,1.4,0,0,0,.66.54l.08,0-.56-.87C52.18,43.51,52.61,43.31,53.07,43.06Z"/><path class="cls-2" d="M52.4,44.67l-.08-.11-.08,0Z"/><path class="cls-1" d="M48.17,42.53l-.32-.05s-2,2.78.33,7.23a12.27,12.27,0,0,1,1.47-2.78A3.83,3.83,0,0,1,48.17,42.53Z"/><path class="cls-1" d="M56.59,39.23l-.13-.43a2.23,2.23,0,0,1-.67-.49l.4.64,0,.36L55,40.26l.25.19C55.72,40.07,56.15,39.67,56.59,39.23Z"/><path class="cls-1" d="M54.54,41.07l0-.41a1.89,1.89,0,0,1-.45-.49l.13.7v.2l-1.07.77.19.15C53.71,41.71,54.12,41.4,54.54,41.07Z"/><path class="cls-1" d="M57.22,38.57c.2-.22.4-.45.59-.68l-.18-.22-.67.67.23.11Z"/><path class="cls-1" d="M51,43.31a1.13,1.13,0,0,1-.32-.37v.41l-2.51,1.4A18.68,18.68,0,0,0,51,43.42Z"/><path class="cls-1" d="M52.85,42.31v-.12a1,1,0,0,1-.29-.3l0,.38-1.08.6L51,42.78l.5.41C51.9,42.93,52.36,42.64,52.85,42.31Z"/><path class="cls-1" d="M68,37.66c-1.69.79-6.39,2.58-8.34,1.87a3.36,3.36,0,0,1-1.1-.79l-.2.22c.24.52,1.84,3,9.45-.93a7.16,7.16,0,0,1,3.82-.45A5.3,5.3,0,0,0,68,37.66Z"/><path class="cls-1" d="M63.37,44.26l0,.05L66,46l-1.31-1.61L66,44.2c0-.11,0-.24-.08-.35A14.27,14.27,0,0,1,63.37,44.26Z"/><path class="cls-1" d="M67.09,43.7l0,.06,2.69,1.77s0,0,0-.06a7.28,7.28,0,0,0-1.21-1.8l1-.78-.06-.21A14.76,14.76,0,0,1,67.09,43.7Z"/><path class="cls-1" d="M70.32,42.26,73,43.79s0,0,0,0C72.43,43,71.56,42,71.56,42l.87-1.37,0-.1A17.89,17.89,0,0,1,70.32,42.26Z"/><path class="cls-1" d="M74.6,39.51l.75-1.64c-.08-.23-.16-.44-.23-.6a19.56,19.56,0,0,1-1.83,2.38l2.8,2.47A4.27,4.27,0,0,0,74.6,39.51Z"/><path class="cls-1" d="M75.74,36.29l2.88,2.39v0l-2-2.42,1.1-2-.13-.35C77,34.05,75.74,36.29,75.74,36.29Z"/><path class="cls-1" d="M78.24,33.21l2.23,2.88a.64.64,0,0,0,0-.07,20.11,20.11,0,0,0-1.28-3l1.27-.93c0-.12,0-.22,0-.3A7.53,7.53,0,0,0,78.24,33.21Z"/></g></g></svg>